<?xml version="1.0" encoding="utf-8"?>
<!-- Generator: Adobe Illustrator 22.1.0, SVG Export Plug-In . SVG Version: 6.00 Build 0)  -->
<svg version="1.1" id="Layer_1" xmlns="http://www.w3.org/2000/svg" xmlns:xlink="http://www.w3.org/1999/xlink" x="0px" y="0px"
	 viewBox="0 0 3000 1000" style="enable-background:new 0 0 3000 1000;" xml:space="preserve">
<style type="text/css">
	.st0{fill:url(#SVGID_1_);}
	.st1{fill:url(#SVGID_2_);}
	.st2{fill:#FFFFFF;}
	.st3{opacity:8.000000e-02;fill:#FFFFFF;enable-background:new    ;}
	.st4{fill:#EFEFEF;}
	.st5{fill:#3D3F5B;}
	.st6{fill:url(#SVGID_3_);}
	.st7{fill:url(#SVGID_4_);}
	.st8{fill:url(#SVGID_5_);}
	.st9{fill:url(#SVGID_6_);}
	.st10{fill:url(#SVGID_7_);}
	.st11{fill:url(#SVGID_8_);}
	.st12{fill:url(#SVGID_9_);}
	.st13{fill:url(#SVGID_10_);}
	.st14{fill:url(#SVGID_11_);}
	.st15{fill:url(#SVGID_12_);}
	.st16{fill:url(#SVGID_13_);}
	.st17{fill:#0A0324;}
	.st18{opacity:0.1;fill:#FFFFFF;enable-background:new    ;}
	.st19{opacity:3.000000e-02;fill:#FFFFFF;enable-background:new    ;}
	.st20{opacity:5.000000e-02;fill:#FFFFFF;enable-background:new    ;}
	.st21{opacity:7.000000e-02;fill:#FFFFFF;enable-background:new    ;}
	.st22{fill:url(#SVGID_14_);stroke:#000000;stroke-miterlimit:10;}
	.st23{opacity:0.59;fill:#FFFFFF;enable-background:new    ;}
	.st24{opacity:0.57;fill:#FFFFFF;enable-background:new    ;}
	.st25{opacity:0.8;fill:#FFFFFF;enable-background:new    ;}
	.st26{fill:url(#SVGID_15_);}
	.st27{fill:#1F1D2B;}
	.st28{opacity:0.43;fill:#1F1D2B;enable-background:new    ;}
	.st29{opacity:0.86;fill:#1F1D2B;enable-background:new    ;}
	.st30{opacity:0.76;fill:#1F1D2B;enable-background:new    ;}
	.st31{fill:url(#SVGID_16_);}
	.st32{opacity:0.35;}
	.st33{fill:url(#SVGID_17_);}
	.st34{opacity:0.3;}
	.st35{opacity:0.25;fill:#FFFFFF;enable-background:new    ;}
	.st36{opacity:0.22;fill:#FFFFFF;enable-background:new    ;}
	.st37{opacity:0.81;fill:url(#SVGID_18_);enable-background:new    ;}
	.st38{opacity:0.35;fill:#FFFFFF;enable-background:new    ;}
</style>
<linearGradient id="SVGID_1_" gradientUnits="userSpaceOnUse" x1="1487" y1="1013.5" x2="1487" y2="3.5" gradientTransform="matrix(1 0 0 -1 0 1002)">
	<stop  offset="0" style="stop-color:#331464"/>
	<stop  offset="1" style="stop-color:#2E3192"/>
</linearGradient>
<path class="st0" d="M-25.5-11.5h3025v1010h-3025V-11.5z"/>
<path d="M2999-11V998H-25V-11H2999 M3000-12H-26V999h3026V-12z"/>
<linearGradient id="SVGID_2_" gradientUnits="userSpaceOnUse" x1="3988.5374" y1="951.5" x2="4583.7813" y2="951.5" gradientTransform="matrix(-0.2999 0 0 -1 3082.676 1002)">
	<stop  offset="0" style="stop-color:#FFF9B3;stop-opacity:0.4"/>
	<stop  offset="1" style="stop-color:#FFFFFF;stop-opacity:0"/>
</linearGradient>
<path class="st1" d="M1885.3,24.9C1852.5,21.4,1708,3,1708,3v95l177.6-70C1887,27.4,1886.7,25.1,1885.3,24.9L1885.3,24.9z"/>
<path class="st2" d="M2358.4,893.7c0,21.9-5.6,42.4-15.5,60.3h-218.6c-10.2-18.5-15.5-39.2-15.5-60.3c0-68.9,55.9-124.8,124.8-124.8
	S2358.4,824.8,2358.4,893.7L2358.4,893.7z"/>
<path class="st3" d="M2412.9,893.7c0,21.2-3.7,41.5-10.4,60.3h-338c-6.9-19.4-10.4-39.8-10.4-60.3c0-99.1,80.3-179.4,179.4-179.4
	S2413,794.6,2412.9,893.7L2412.9,893.7z"/>
<path class="st3" d="M2440.2,893.7c0,20.4-3,40.8-8.9,60.3h-395.4c-5.9-19.5-9-39.9-8.9-60.3c0-114.1,92.5-206.6,206.6-206.6
	S2440.2,779.6,2440.2,893.7L2440.2,893.7z"/>
<path class="st3" d="M2486.7,893.7c0,20.8-2.5,41-7.2,60.3h-491.8c-4.8-19.7-7.2-40-7.2-60.3c0-139.8,113.3-253.1,253.1-253.1
	S2486.7,753.9,2486.7,893.7L2486.7,893.7z"/>
<path class="st3" d="M2538.6,893.7c0,20.6-2.1,40.8-6,60.3h-598c-4-19.9-6-40.1-6-60.3c0-168.4,136.5-305,305-305
	S2538.6,725.3,2538.6,893.7L2538.6,893.7z"/>
<circle class="st4" cx="2154.1" cy="897.5" r="9.2"/>
<circle class="st4" cx="2224.4" cy="906.8" r="13.8"/>
<circle class="st4" cx="2299.3" cy="867.6" r="9.2"/>
<circle class="st4" cx="2182.9" cy="838.4" r="19.6"/>
<path class="st5" d="M1887,87.1c-1.6,0-2.9-1.3-2.9-2.9l0,0V22.7c0-1.6,1.3-2.9,2.9-2.9s2.9,1.3,2.9,2.9l0,0v61.5
	C1889.8,85.8,1888.5,87.1,1887,87.1L1887,87.1z"/>
<linearGradient id="SVGID_3_" gradientUnits="userSpaceOnUse" x1="1880.25" y1="948.5301" x2="1893.6899" y2="948.5301" gradientTransform="matrix(1 0 0 -1 0 1002)">
	<stop  offset="0" style="stop-color:#331495"/>
	<stop  offset="1" style="stop-color:#02001D"/>
</linearGradient>
<path class="st6" d="M1887,16c-3.7,0-6.7,3-6.7,6.7v61.5c0,3.7,3,6.7,6.7,6.7s6.7-3,6.7-6.7c0,0,0,0,0,0V22.7
	C1893.7,19,1890.7,16,1887,16L1887,16z"/>
<linearGradient id="SVGID_4_" gradientUnits="userSpaceOnUse" x1="1845.49" y1="759.95" x2="1928.84" y2="759.95" gradientTransform="matrix(1 0 0 -1 0 1002)">
	<stop  offset="0" style="stop-color:#331495"/>
	<stop  offset="1" style="stop-color:#02001D"/>
</linearGradient>
<path class="st7" d="M1928.8,426.8h-22.1v0.2l-39-0.4v0.2h-22.3c18.8-96.9,21.7-223.8,22.1-275.7V76.7c0-10.8,8.8-19.6,19.6-19.6
	c5.4,0,10.3,2.2,13.8,5.8c3.7,3.7,5.7,8.6,5.8,13.8v50.7c0,0-0.1,7.8,0,21.4v0.3l0,1.7C1907.1,202.4,1910,329.7,1928.8,426.8
	L1928.8,426.8z"/>
<linearGradient id="SVGID_5_" gradientUnits="userSpaceOnUse" x1="1784.2499" y1="478.78" x2="2002.3699" y2="478.78" gradientTransform="matrix(1 0 0 -1 0 1002)">
	<stop  offset="0" style="stop-color:#331495"/>
	<stop  offset="1" style="stop-color:#02001D"/>
</linearGradient>
<path class="st8" d="M1946.2,614.4l-36.6-85.2c-0.6-1.4-2-2.3-3.5-2.3h-36.1c-1.7,0-3.2,1.1-3.7,2.7l-25.7,84.8h-56.3l63-181.7
	l78.4-0.7l76.7,182.4L1946.2,614.4L1946.2,614.4z"/>
<linearGradient id="SVGID_6_" gradientUnits="userSpaceOnUse" x1="1762.33" y1="361.835" x2="2022.3599" y2="361.835" gradientTransform="matrix(1 0 0 -1 0 1002)">
	<stop  offset="0" style="stop-color:#331495"/>
	<stop  offset="1" style="stop-color:#02001D"/>
</linearGradient>
<path class="st9" d="M1762.3,644.9v-9.4c0-4.2,3.4-7.6,7.6-7.6h244.9c4.2,0,7.6,3.4,7.6,7.6v9.4c0,4.2-3.4,7.6-7.6,7.6h-244.9
	C1765.7,652.5,1762.3,649.1,1762.3,644.9z"/>
<linearGradient id="SVGID_7_" gradientUnits="userSpaceOnUse" x1="1688.5601" y1="216.655" x2="2098.4001" y2="216.655" gradientTransform="matrix(1 0 0 -1 0 1002)">
	<stop  offset="0" style="stop-color:#331495"/>
	<stop  offset="1" style="stop-color:#02001D"/>
</linearGradient>
<path class="st10" d="M2031.4,905.9c0-1.5,0-2.9-0.1-4.4c0-1.4-0.1-2.8-0.1-4.4c0-96-51.4-153.3-137.5-153.3
	c-87.5,0-139.8,56.2-140.2,150.5c-1.8,1.3-7.3,3.2-10.7,4.4c-6.4,2.3-11.6,4.1-14.1,6.8h-40.2l81.5-240.8h244.6l83.8,240.9
	L2031.4,905.9L2031.4,905.9z"/>
<linearGradient id="SVGID_8_" gradientUnits="userSpaceOnUse" x1="1816.49" y1="519.89" x2="1957.45" y2="519.89" gradientTransform="matrix(1 0 0 -1 0 1002)">
	<stop  offset="0" style="stop-color:#331495"/>
	<stop  offset="1" style="stop-color:#02001D"/>
</linearGradient>
<path class="st11" d="M1821.7,487.3c-2.9-0.2-5-2.6-4.9-5.5c0.2-2.6,2.2-4.7,4.9-4.9h130.6c2.9,0.2,5,2.7,4.8,5.6
	c-0.2,2.6-2.2,4.6-4.8,4.8L1821.7,487.3L1821.7,487.3z"/>
<linearGradient id="SVGID_9_" gradientUnits="userSpaceOnUse" x1="1823.02" y1="570.285" x2="1951.6899" y2="570.285" gradientTransform="matrix(1 0 0 -1 0 1002)">
	<stop  offset="0" style="stop-color:#331495"/>
	<stop  offset="1" style="stop-color:#02001D"/>
</linearGradient>
<path class="st12" d="M1828.2,436.9c-2.9-0.2-5-2.7-4.8-5.6c0.2-2.6,2.2-4.6,4.8-4.8h118.3c2.9,0.2,5,2.7,4.8,5.6
	c-0.2,2.6-2.2,4.6-4.8,4.8H1828.2z"/>
<linearGradient id="SVGID_10_" gradientUnits="userSpaceOnUse" x1="1738.52" y1="381" x2="2046.1799" y2="381" gradientTransform="matrix(1 0 0 -1 0 1002)">
	<stop  offset="0" style="stop-color:#331495"/>
	<stop  offset="1" style="stop-color:#02001D"/>
</linearGradient>
<path class="st13" d="M1742.4,628c-2.1,0-3.8-3.1-3.8-7s1.7-7,3.8-7h300c2.1,0,3.8,3.1,3.8,7s-1.7,7-3.8,7H1742.4z"/>
<linearGradient id="SVGID_11_" gradientUnits="userSpaceOnUse" x1="1738.52" y1="343.27" x2="2046.1799" y2="343.27" gradientTransform="matrix(1 0 0 -1 0 1002)">
	<stop  offset="0" style="stop-color:#331495"/>
	<stop  offset="1" style="stop-color:#02001D"/>
</linearGradient>
<path class="st14" d="M1742.4,665c-2.1,0-3.8-2.8-3.8-6.3s1.7-6.3,3.8-6.3h300c2.1,0,3.8,2.8,3.8,6.3s-1.7,6.3-3.8,6.3H1742.4z"/>
<linearGradient id="SVGID_12_" gradientUnits="userSpaceOnUse" x1="1853.36" y1="884.97" x2="1920.58" y2="884.97" gradientTransform="matrix(1 0 0 -1 0 1002)">
	<stop  offset="0" style="stop-color:#331495"/>
	<stop  offset="1" style="stop-color:#02001D"/>
</linearGradient>
<path class="st15" d="M1859.9,123.6c-3.6-0.2-6.4-3.3-6.2-6.9c0.2-3.3,2.8-6,6.2-6.2h54.2c3.6,0.2,6.4,3.3,6.2,6.9
	c-0.2,3.3-2.8,6-6.2,6.2H1859.9L1859.9,123.6z"/>
<linearGradient id="SVGID_13_" gradientUnits="userSpaceOnUse" x1="1723.8301" y1="107" x2="1723.8301" y2="77.8" gradientTransform="matrix(1 0 0 -1 0 1002)">
	<stop  offset="0" style="stop-color:#331495"/>
	<stop  offset="1" style="stop-color:#02001D"/>
</linearGradient>
<path class="st16" d="M1769.5,924.2h-91.4c-8.1,0-14.6-6.5-14.6-14.6c0-8.1,6.5-14.6,14.6-14.6h91.4c8.1,0,14.6,6.5,14.6,14.6
	C1784.1,917.7,1777.6,924.2,1769.5,924.2z"/>
<path class="st17" d="M2112.5,924.2h-91.4c-8.1,0-14.6-6.5-14.6-14.6c0-8.1,6.5-14.6,14.6-14.6l0,0h91.4c8.1,0,14.6,6.5,14.6,14.6
	C2127.1,917.7,2120.6,924.2,2112.5,924.2z"/>
<path class="st18" d="M1640.7,248.3l0-0.7c0-3.8-2.2-7.2-5.7-8.7c4.8-2.1,7-7.7,4.9-12.6c-1.5-3.4-4.9-5.7-8.7-5.7H1616
	c-2-3.6-4.8-6.6-8.1-9.1c-0.8-15.9-14.4-28-30.3-27.2c-4.2,0.2-8.3,1.4-12,3.4c-12.8-9.4-30.8-6.6-40.2,6.3
	c-3.2,4.4-5.1,9.5-5.5,14.9c-13.6-3.3-27.6,3.6-33.2,16.5h-41.6c-2.6,0-5,1.1-6.7,2.8c-3.7,3.7-3.7,9.7,0,13.4
	c0.1,0.1,0.3,0.3,0.4,0.4l-0.4,0.4c-1.4,1.4-2.4,3.3-2.7,5.2h-18.7c-2.6,0-5,1.1-6.7,2.8c-1.8,1.8-2.8,4.2-2.8,6.7
	c0,5.3,4.3,9.5,9.5,9.5h220.3c2.6,0,5-1.1,6.7-2.8c3.7-3.7,3.7-9.7,0-13.4C1643.2,249.5,1642,248.8,1640.7,248.3L1640.7,248.3z
	 M2020.7,380.6v-0.3c0-1.3-0.8-2.6-2-3.1c1.7-0.7,2.5-2.7,1.8-4.5c-0.5-1.2-1.8-2-3.1-2h-5.4c-0.7-1.3-1.7-2.4-2.9-3.2
	c-0.3-5.7-5.1-10-10.8-9.7c-1.5,0.1-3,0.5-4.3,1.2c-4.6-3.3-11-2.3-14.3,2.2c-1.1,1.6-1.8,3.4-1.9,5.3c-4.9-1.2-9.9,1.3-11.8,5.9
	H1951c-1.9,0-3.4,1.5-3.4,3.4c0,0,0,0,0,0c0,1,0.4,1.9,1.2,2.5l-0.2,0.1c-0.5,0.5-0.8,1.1-0.9,1.9h-6.7c-1.9,0-3.4,1.5-3.4,3.4
	c0,0,0,0,0,0c0,1.9,1.5,3.4,3.4,3.4h78.6c1.9,0,3.4-1.5,3.4-3.4c0,0,0,0,0,0C2022.9,382.3,2022.1,381.1,2020.7,380.6L2020.7,380.6z
	 M2447.7,89.2V89c0-0.8-0.8-1.6-2-1.9c0.4-0.1,0.7-0.3,1-0.4c0.6-0.4,1-0.9,1-1.4c0-1.1-1.5-2-3.4-2h-5.4c-0.8-0.8-1.8-1.5-2.9-1.9
	c-0.3-3.3-4.8-5.8-10.3-5.8c-1.8,0-3.4,0.3-4.8,0.7c-1.9-0.8-4-1.2-6.1-1.2c-5.4,0-9.9,2.5-10.2,5.8c-0.8-0.1-1.6-0.2-2.4-0.2
	c-4.2,0-7.8,1.5-9.4,3.7H2378c-0.9,0-1.8,0.2-2.4,0.6c-0.6,0.4-1,0.9-1,1.4c0,0.6,0.4,1.2,1.1,1.5l-0.1,0.1c-0.5,0.3-0.9,0.7-1,1.1
	h-6.7c-0.9,0-1.8,0.2-2.4,0.6c-0.6,0.4-1,0.9-1,1.4c0,1.1,1.5,2,3.4,2h78.6c0.8,0,1.7-0.2,2.4-0.6c0.6-0.4,1-0.9,1-1.4
	C2449.9,90.2,2449,89.5,2447.7,89.2L2447.7,89.2z M1143.6,361.7l0-0.4c0-2.1-1.2-3.9-3.1-4.8c2.6-1.2,3.8-4.3,2.6-6.9
	c-0.8-1.9-2.7-3.1-4.7-3.1h-8.3c-1.1-1.9-2.6-3.6-4.4-5c-0.5-8.7-7.9-15.3-16.6-14.9c-2.3,0.1-4.6,0.8-6.6,1.8
	c-7-5.1-16.9-3.6-22,3.4c-1.7,2.4-2.8,5.2-3,8.2c-7.4-1.8-15.1,2-18.2,9h-22.8c-2.9,0-5.2,2.3-5.2,5.2c0,0,0,0,0,0.1
	c0,1.5,0.6,2.9,1.7,3.9l-0.2,0.2c-0.8,0.8-1.3,1.8-1.5,2.9h-10.3c-2.9,0-5.2,2.3-5.2,5.1c0,0,0,0,0,0.1c0,2.9,2.3,5.2,5.2,5.2h120.6
	c2.9,0,5.2-2.3,5.2-5.2c0,0,0,0,0,0C1147,364.4,1145.6,362.4,1143.6,361.7L1143.6,361.7z"/>
<path class="st19" d="M628.8,275.6h-185c-7.1,0-12.8-5.8-12.8-12.8c0-7.1,5.8-12.8,12.8-12.8h185c7,0,12.8,5.8,12.8,12.8
	C641.6,269.8,635.8,275.6,628.8,275.6L628.8,275.6z"/>
<path class="st18" d="M919.4,345H721.8c-3.6,0-6.5-2.9-6.5-6.5c0-3.6,2.9-6.5,6.5-6.5h197.6c3.6,0,6.5,2.9,6.5,6.5
	C925.9,342.1,923,345,919.4,345L919.4,345z"/>
<path class="st20" d="M1274.3,431h-51.1c-5.6,0-10.2,4.6-10.2,10.2c0,5.6,4.6,10.2,10.2,10.2h51.1c5.6,0,10.2-4.6,10.2-10.2
	C1284.5,435.6,1279.9,431,1274.3,431z M865.7,435H664.2c-4,0-7.2-3.2-7.3-7.3c0-4,3.3-7.3,7.3-7.3h201.5c4,0,7.2,3.3,7.3,7.3
	C873,431.7,869.7,435,865.7,435L865.7,435z"/>
<path class="st18" d="M2822.7,136h-203.5c-3.5,0-6.3-2.8-6.3-6.3c0-3.5,2.8-6.3,6.3-6.3h203.5c3.5,0,6.3,2.8,6.3,6.3
	C2829,133.2,2826.2,136,2822.7,136z M2192.2,199.2h-186.9c-8,0-14.5-6.5-14.5-14.5c0-8,6.5-14.4,14.5-14.5h186.9
	c8,0,14.4,6.5,14.5,14.5C2206.7,192.7,2200.2,199.2,2192.2,199.2z"/>
<path class="st21" d="M464.5,88H89.2c-3.7,0-6.7-3-6.7-6.7c0-3.7,3-6.7,6.7-6.7h375.3c3.7,0,6.7,3,6.7,6.7
	C471.2,85,468.2,88,464.5,88z M245.1,375H45.4c-4.3,0-7.8-3.5-7.8-7.8v-5.6c0-4.3,3.5-7.8,7.8-7.8h199.7c4.3,0,7.8,3.5,7.8,7.8v5.6
	C252.9,371.5,249.4,375,245.1,375L245.1,375z"/>
<path class="st18" d="M2420,419.5h-229.5c-7.2,0-12.9-5.8-13-13c0-7.2,5.8-13,13-13H2420c7.1,0,13,5.8,13,13
	S2427.1,419.5,2420,419.5L2420,419.5z M2549.5,351.4h-55.7c-3.7,0-6.7,3-6.7,6.7c0,3.7,3,6.7,6.7,6.7h55.7c3.7,0,6.7-3,6.7-6.7
	C2556.3,354.4,2553.2,351.4,2549.5,351.4z M2859.5,501.3h-195.4c-8,0-14.4-6.5-14.5-14.5c0-8,6.5-14.5,14.5-14.5h195.4
	c8,0,14.5,6.5,14.5,14.5C2874,494.8,2867.5,501.3,2859.5,501.3z"/>
<linearGradient id="SVGID_14_" gradientUnits="userSpaceOnUse" x1="1490.5" y1="79.5" x2="1490.5" y2="2.5" gradientTransform="matrix(1 0 0 -1 0 1002)">
	<stop  offset="0" style="stop-color:#070028"/>
	<stop  offset="1" style="stop-color:#2E3192"/>
</linearGradient>
<path class="st22" d="M-18.5,922.5h3018v77h-3018V922.5z"/>
<circle class="st2" cx="1174" cy="193" r="2.8"/>
<circle class="st23" cx="900" cy="158" r="5.5"/>
<circle class="st23" cx="545" cy="38" r="9"/>
<circle class="st2" cx="82" cy="158" r="4.2"/>
<circle class="st24" cx="2805" cy="60" r="6"/>
<circle class="st2" cx="2838" cy="69" r="2"/>
<circle class="st25" cx="2869" cy="246" r="5"/>
<circle class="st25" cx="2457" cy="189" r="5"/>
<circle class="st25" cx="2796" cy="372" r="5"/>
<circle class="st2" cx="341" cy="189" r="6"/>
<circle class="st2" cx="1653" cy="338" r="6"/>
<circle class="st2" cx="1488" cy="81" r="6"/>
<path d="M2301.6,722.9c1.9-1.7,3.4-8.3,3.4-8.3s-6.2,3.1-6.2,5.7S2299.7,724.5,2301.6,722.9L2301.6,722.9z M2303.9,720.3
	c0,0,4.1,0,9.3-1s8.8,1.5,9.8,0.5s-15.5-4.6-19.1-0.5"/>
<path d="M2298.7,720.3c0,0-8.8,3.6-11.3,3.1s-7.7-2.1,0.5-2.1c8.3,0,9.4-0.4,11.4-2.5 M2299.2,764.7c1.1-2.3,2-11.7,2-11.7
	s-3.7,4.4-3.7,8S2298.1,766.9,2299.2,764.7L2299.2,764.7z M2300.6,761c0,0,2.4,0,5.5-1.5s5.2,2.2,5.8,0.7s-9.2-6.6-11.4-0.7"/>
<path d="M2297.5,761c0,0-5.2,5.1-6.8,4.4c-1.5-0.7-4.6-2.9,0.3-2.9c4.9,0,5.6-0.5,6.8-3.6 M2227.8,754.9c-1.2-1.7-2.1-8.3-2.1-8.3
	s4,3.1,4,5.7S2228.9,756.5,2227.8,754.9z M2226.3,752.3c0,0-2.6,0-5.9-1s-5.6,1.5-6.3,0.5c-0.7-1,9.9-4.6,12.2-0.5"/>
<path d="M2229.6,752.3c0,0,5.6,3.6,7.3,3.1s4.9-2.1-0.3-2.1s-6-0.4-7.3-2.5 M2105.8,701.9c-1.2-1.7-2.1-8.3-2.1-8.3s4,3.1,4,5.7
	S2106.9,703.5,2105.8,701.9z"/>
<path d="M2117,698.3c0,0-2.6,0-5.8-1.2c-3.2-1.2-5.5,1.8-6.1,0.6c-0.6-1.2,9.7-5.2,12-0.6"/>
<path d="M2104.7,697.8c0,0-6.2,2.6-6.7,4.2s-1.1,5.3,1.9,0.9c3-4.3,3.7-4.7,6.2-4.6"/>
<linearGradient id="SVGID_15_" gradientUnits="userSpaceOnUse" x1="1888.5132" y1="946.5" x2="2127" y2="946.5" gradientTransform="matrix(1 0 0 -1 0 1002)">
	<stop  offset="0" style="stop-color:#FFF9B3;stop-opacity:0.7"/>
	<stop  offset="1" style="stop-color:#FFFFFF;stop-opacity:0"/>
</linearGradient>
<path class="st26" d="M1890.2,24.3C1933.9,19.9,2127-2.5,2127-2.5v116L1889.8,28C1887.9,27.3,1888.2,24.5,1890.2,24.3z"/>
<path class="st27" d="M783.6,119.7H629.7c-4.1,0-7.4-3.3-7.5-7.4c0-4.1,3.3-7.4,7.5-7.4h153.9c4.1,0,7.4,3.3,7.4,7.4
	C791,116.4,787.6,119.7,783.6,119.7L783.6,119.7z"/>
<path class="st28" d="M781.5,111.6H631.7c-4.1,0-7.4-3.3-7.5-7.4c0-4.1,3.3-7.4,7.5-7.4h149.7c4.1,0,7.4,3.3,7.4,7.4
	C788.9,108.2,785.6,111.5,781.5,111.6z"/>
<path class="st29" d="M789.5,112H624.5c-3,0-5.5-2.5-5.5-5.5c0-3,2.5-5.5,5.5-5.5h164.9c3,0,5.5,2.5,5.5,5.5
	C794.9,109.6,792.5,112,789.5,112L789.5,112z"/>
<path class="st30" d="M723.5,146.2l-15.8-31.4c-1.8-3.7-0.4-8.1,3.3-10c3.7-1.8,8.1-0.4,10,3.3l15.8,31.4c1.8,3.7,0.4,8.1-3.3,10
	C729.8,151.4,725.3,149.9,723.5,146.2L723.5,146.2z"/>
<path class="st27" d="M709.9,93.8l26.6-23c3.1-2.7,7.8-2.3,10.5,0.8c2.7,3.1,2.3,7.8-0.8,10.5l-26.6,23c-3.1,2.7-7.8,2.3-10.5-0.8
	C706.4,101.2,706.8,96.5,709.9,93.8z M768.6,100.6l28.9-25.1L789,117L768.6,100.6z"/>
<radialGradient id="SVGID_16_" cx="797" cy="926" r="4" gradientTransform="matrix(1 0 0 -1 0 1002)" gradientUnits="userSpaceOnUse">
	<stop  offset="0" style="stop-color:#C81464"/>
	<stop  offset="1" style="stop-color:#933100;stop-opacity:0"/>
</radialGradient>
<path class="st31" d="M797,80c-2.2,0-4-1.8-4-4s1.8-4,4-4s4,1.8,4,4S799.2,80,797,80z"/>
<g class="st32">
	
		<radialGradient id="SVGID_17_" cx="483.2298" cy="899.3691" r="4" gradientTransform="matrix(0.6328 0 0 -0.6328 490.198 647.1148)" gradientUnits="userSpaceOnUse">
		<stop  offset="0" style="stop-color:#FFFFFF"/>
		<stop  offset="1" style="stop-color:#FFFFFF;stop-opacity:0"/>
	</radialGradient>
	<path class="st33" d="M796,80.5c-1.4,0.1-2.6-1-2.7-2.4c-0.1-1.4,1-2.6,2.4-2.7c0.1,0,0.2,0,0.3,0c1.4,0.1,2.5,1.3,2.4,2.7
		C798.3,79.4,797.3,80.4,796,80.5z"/>
</g>
<path class="st19" d="M1118.5,120h-182c-1.9,0-3.5-1.6-3.5-3.5v-8c0-1.9,1.6-3.5,3.5-3.5h182c1.9,0,3.5,1.6,3.5,3.5v8
	C1122,118.4,1120.4,120,1118.5,120z M940.5,231h-98c-1.9,0-3.5-1.6-3.5-3.5s1.6-3.5,3.5-3.5h98c1.9,0,3.5,1.6,3.5,3.5
	S942.4,231,940.5,231L940.5,231z M866.5,116h-36c-1.9,0-3.5-1.6-3.5-3.5s1.6-3.5,3.5-3.5h36c1.9,0,3.5,1.6,3.5,3.5
	S868.4,116,866.5,116z M978.5,54h-62c-1.9,0-3.5-1.6-3.5-3.5s1.6-3.5,3.5-3.5h62c1.9,0,3.5,1.6,3.5,3.5S980.4,54,978.5,54z
	 M1176.5,105h-26c-1.9,0-3.5-1.6-3.5-3.5s1.6-3.5,3.5-3.5h26c1.9,0,3.5,1.6,3.5,3.5S1178.4,105,1176.5,105z"/>
<g class="st34">
	<path class="st35" d="M1469.9,422.7c-5.9,0.9-11.4-3.2-12.3-9.1c-0.9-5.9,3.2-11.4,9.1-12.3c5.9-0.9,11.4,3.2,12.3,9.1
		C1479.9,416.3,1475.8,421.8,1469.9,422.7L1469.9,422.7z"/>
	<path class="st36" d="M1469.5,419.9c-4.3,0.6-8.4-2.4-9-6.7c-0.6-4.3,2.3-8.4,6.7-9c4.3-0.6,8.4,2.3,9,6.7
		C1476.8,415.2,1473.8,419.2,1469.5,419.9L1469.5,419.9z"/>
	
		<linearGradient id="SVGID_18_" gradientUnits="userSpaceOnUse" x1="1246.7703" y1="258.5399" x2="1246.7703" y2="536.5284" gradientTransform="matrix(0.4432 -0.5986 -0.8097 -0.5995 1125.1697 1313.2534)">
		<stop  offset="0" style="stop-color:#C4C7FF;stop-opacity:0.5"/>
		<stop  offset="1" style="stop-color:#FFFFFF;stop-opacity:0"/>
	</linearGradient>
	<path class="st37" d="M1467.8,412.7c-1.3,1.7-3.7,2.1-5.4,0.8c0,0,0,0,0,0l-222-164.3l5.8-7.8l220.4,163.2
		C1469.2,406.5,1469.7,410.1,1467.8,412.7L1467.8,412.7z"/>
	<path class="st38" d="M1469,416.6c-2.5,0.4-4.9-1.4-5.3-3.9c-0.4-2.5,1.4-4.9,3.9-5.3c2.5-0.4,4.9,1.4,5.3,3.9
		C1473.3,413.9,1471.5,416.2,1469,416.6L1469,416.6z"/>
</g>
</svg>
