<?xml version="1.0" encoding="utf-8"?>
<!-- Generator: Adobe Illustrator 22.1.0, SVG Export Plug-In . SVG Version: 6.00 Build 0)  -->
<svg version="1.1" id="Layer_1" xmlns="http://www.w3.org/2000/svg" xmlns:xlink="http://www.w3.org/1999/xlink" x="0px" y="0px"
	 viewBox="0 0 3000 1000" style="enable-background:new 0 0 3000 1000;" xml:space="preserve">
<style type="text/css">
	.st0{opacity:0.8;}
	.st1{fill:url(#SVGID_1_);}
	.st2{fill:#1C1549;}
	.st3{opacity:0.51;}
	.st4{fill:url(#SVGID_2_);}
	.st5{opacity:2.000000e-02;fill:url(#SVGID_3_);enable-background:new    ;}
	.st6{opacity:2.000000e-02;fill:url(#SVGID_4_);enable-background:new    ;}
	.st7{opacity:2.000000e-02;fill:url(#SVGID_5_);enable-background:new    ;}
	.st8{opacity:2.000000e-02;fill:url(#SVGID_6_);enable-background:new    ;}
	.st9{opacity:0.5;fill:#1C1549;enable-background:new    ;}
	.st10{fill:#16133F;}
	.st11{opacity:0.9;fill:#16133F;enable-background:new    ;}
	.st12{opacity:0.8;fill:#1C1549;enable-background:new    ;}
	.st13{opacity:0.4;fill:#1C1549;enable-background:new    ;}
	.st14{opacity:0.7;fill:#1C1549;enable-background:new    ;}
	.st15{opacity:0.8;fill:#16133F;enable-background:new    ;}
	.st16{fill:url(#SVGID_7_);}
	.st17{fill:url(#SVGID_8_);}
	.st18{fill:url(#SVGID_9_);}
	.st19{fill:url(#SVGID_10_);}
	.st20{fill:url(#SVGID_11_);}
	.st21{opacity:0.9;fill:url(#SVGID_12_);enable-background:new    ;}
	.st22{opacity:0.6;fill:url(#SVGID_13_);enable-background:new    ;}
	.st23{opacity:0.9;fill:url(#SVGID_14_);enable-background:new    ;}
	.st24{opacity:0.8;fill:url(#SVGID_15_);enable-background:new    ;}
	.st25{fill:url(#SVGID_16_);}
	.st26{opacity:0.8;fill:url(#SVGID_17_);enable-background:new    ;}
	.st27{opacity:0.9;fill:url(#SVGID_18_);enable-background:new    ;}
	.st28{opacity:0.8;fill:url(#SVGID_19_);enable-background:new    ;}
	.st29{fill:url(#SVGID_20_);}
	.st30{fill:url(#SVGID_21_);}
	.st31{fill:url(#SVGID_22_);}
	.st32{opacity:0.65;}
	.st33{fill:url(#SVGID_23_);}
	.st34{opacity:0.36;fill:url(#SVGID_24_);enable-background:new    ;}
	.st35{opacity:2.000000e-02;fill:url(#SVGID_25_);enable-background:new    ;}
	.st36{opacity:2.000000e-02;fill:url(#SVGID_26_);enable-background:new    ;}
	.st37{opacity:2.000000e-02;fill:url(#SVGID_27_);enable-background:new    ;}
	.st38{opacity:2.000000e-02;fill:url(#SVGID_28_);enable-background:new    ;}
	.st39{opacity:2.000000e-02;fill:url(#SVGID_29_);enable-background:new    ;}
	.st40{opacity:2.000000e-02;fill:url(#SVGID_30_);enable-background:new    ;}
	.st41{opacity:2.000000e-02;fill:url(#SVGID_31_);enable-background:new    ;}
	.st42{fill:url(#SVGID_32_);}
	.st43{fill:url(#SVGID_33_);}
	.st44{fill:url(#SVGID_34_);}
	.st45{fill:url(#SVGID_35_);}
	.st46{fill:url(#SVGID_36_);}
	.st47{fill:url(#SVGID_37_);}
	.st48{fill:url(#SVGID_38_);}
	.st49{fill:url(#SVGID_39_);}
	.st50{fill:url(#SVGID_40_);}
	.st51{fill:url(#SVGID_41_);}
	.st52{fill:url(#SVGID_42_);}
	.st53{fill:url(#SVGID_43_);}
	.st54{fill:url(#SVGID_44_);}
	.st55{fill:url(#SVGID_45_);}
	.st56{fill:url(#SVGID_46_);}
	.st57{fill:url(#SVGID_47_);}
	.st58{fill:url(#SVGID_48_);}
	.st59{fill:url(#SVGID_49_);}
	.st60{fill:url(#SVGID_50_);}
	.st61{fill:url(#SVGID_51_);}
	.st62{fill:url(#SVGID_52_);}
	.st63{fill:url(#SVGID_53_);}
	.st64{fill:url(#SVGID_54_);}
	.st65{fill:url(#SVGID_55_);}
	.st66{fill:url(#SVGID_56_);}
	.st67{fill:url(#SVGID_57_);}
	.st68{fill:url(#SVGID_58_);}
	.st69{fill:url(#SVGID_59_);}
	.st70{fill:url(#SVGID_60_);}
	.st71{opacity:0.6;fill:url(#SVGID_61_);enable-background:new    ;}
	.st72{fill:url(#SVGID_62_);}
	.st73{fill:url(#SVGID_63_);}
	.st74{fill:url(#SVGID_64_);}
	.st75{fill:url(#SVGID_65_);}
	.st76{fill:url(#SVGID_66_);}
	.st77{fill:url(#SVGID_67_);}
	.st78{fill:url(#SVGID_68_);}
	.st79{fill:url(#SVGID_69_);}
	.st80{opacity:0.6;fill:url(#SVGID_70_);enable-background:new    ;}
	.st81{opacity:0.6;fill:url(#SVGID_71_);enable-background:new    ;}
	.st82{opacity:0.6;fill:url(#SVGID_72_);enable-background:new    ;}
	.st83{opacity:0.6;fill:url(#SVGID_73_);enable-background:new    ;}
	.st84{opacity:0.6;fill:url(#SVGID_74_);enable-background:new    ;}
	.st85{opacity:0.6;fill:url(#SVGID_75_);enable-background:new    ;}
	.st86{opacity:0.6;fill:url(#SVGID_76_);enable-background:new    ;}
	.st87{opacity:0.6;fill:url(#SVGID_77_);enable-background:new    ;}
	.st88{opacity:0.6;fill:url(#SVGID_78_);enable-background:new    ;}
	.st89{opacity:0.6;fill:url(#SVGID_79_);enable-background:new    ;}
	.st90{opacity:0.6;fill:url(#SVGID_80_);enable-background:new    ;}
	.st91{opacity:0.6;fill:url(#SVGID_81_);enable-background:new    ;}
	.st92{opacity:0.6;fill:url(#SVGID_82_);enable-background:new    ;}
	.st93{opacity:0.6;fill:url(#SVGID_83_);enable-background:new    ;}
	.st94{opacity:0.6;fill:url(#SVGID_84_);enable-background:new    ;}
	.st95{opacity:0.6;fill:url(#SVGID_85_);enable-background:new    ;}
	.st96{opacity:0.2;fill:url(#SVGID_86_);enable-background:new    ;}
	.st97{opacity:0.2;fill:url(#SVGID_87_);enable-background:new    ;}
	.st98{opacity:0.5;fill:url(#SVGID_88_);enable-background:new    ;}
	.st99{opacity:0.5;fill:url(#SVGID_89_);enable-background:new    ;}
	.st100{opacity:0.5;fill:url(#SVGID_90_);enable-background:new    ;}
	.st101{opacity:0.9;fill:url(#SVGID_91_);enable-background:new    ;}
	.st102{fill:url(#SVGID_92_);}
	.st103{fill:url(#SVGID_93_);}
	.st104{fill:url(#SVGID_94_);}
	.st105{fill:url(#SVGID_95_);}
	.st106{fill:url(#SVGID_96_);}
	.st107{opacity:0.9;fill:url(#SVGID_97_);enable-background:new    ;}
	.st108{fill:url(#SVGID_98_);}
	.st109{fill:url(#SVGID_99_);}
	.st110{fill:url(#SVGID_100_);}
	.st111{fill:url(#SVGID_101_);}
	.st112{fill:url(#SVGID_102_);}
	.st113{fill:url(#SVGID_103_);}
	.st114{fill:url(#SVGID_104_);}
	.st115{fill:url(#SVGID_105_);}
	
		.st116{opacity:0.13;fill:none;stroke:url(#SVGID_106_);stroke-width:2;stroke-linecap:round;stroke-linejoin:round;stroke-miterlimit:10;enable-background:new    ;}
	
		.st117{opacity:7.000000e-02;fill:none;stroke:url(#SVGID_107_);stroke-width:2;stroke-linecap:round;stroke-linejoin:round;stroke-miterlimit:10;enable-background:new    ;}
	
		.st118{opacity:0.13;fill:none;stroke:url(#SVGID_108_);stroke-width:2;stroke-linecap:round;stroke-linejoin:round;stroke-miterlimit:10;enable-background:new    ;}
	
		.st119{opacity:0.13;fill:none;stroke:url(#SVGID_109_);stroke-width:2;stroke-linecap:round;stroke-linejoin:round;stroke-miterlimit:10;enable-background:new    ;}
</style>
<g class="st0">
	
		<linearGradient id="SVGID_1_" gradientUnits="userSpaceOnUse" x1="2091.5098" y1="1526.5198" x2="908.4901" y2="-522.5198" gradientTransform="matrix(1 0 0 -1 0 1002)">
		<stop  offset="0" style="stop-color:#0051AF"/>
		<stop  offset="0.26" style="stop-color:#008DAF"/>
		<stop  offset="1" style="stop-color:#1B2C32"/>
	</linearGradient>
	<path class="st1" d="M0,0h3000v1000H0V0z"/>
</g>
<path class="st2" d="M0,748h2253v18H0V748z"/>
<g class="st3">
	
		<linearGradient id="SVGID_2_" gradientUnits="userSpaceOnUse" x1="3002" y1="502" x2="1.818989e-12" y2="502" gradientTransform="matrix(1 0 0 -1 0 1002)">
		<stop  offset="0" style="stop-color:#7F21B9"/>
		<stop  offset="1" style="stop-color:#1B2C32"/>
	</linearGradient>
	<path class="st4" d="M0,0h3002v1000H0V0z"/>
</g>
<linearGradient id="SVGID_3_" gradientUnits="userSpaceOnUse" x1="1779" y1="516.5" x2="1779" y2="75.5" gradientTransform="matrix(1 0 0 -1 0 1002)">
	<stop  offset="0" style="stop-color:#FF0000"/>
	<stop  offset="1" style="stop-color:#846B00"/>
</linearGradient>
<path class="st5" d="M2220,926.5h-882c0-243.6,197.4-441,441-441S2220,682.9,2220,926.5z"/>
<linearGradient id="SVGID_4_" gradientUnits="userSpaceOnUse" x1="1779" y1="492" x2="1779" y2="100" gradientTransform="matrix(1 0 0 -1 0 1002)">
	<stop  offset="0" style="stop-color:#FF0000"/>
	<stop  offset="1" style="stop-color:#846B00"/>
</linearGradient>
<path class="st6" d="M2171,902h-784c0-216.5,175.5-392,392-392S2171,685.5,2171,902z"/>
<linearGradient id="SVGID_5_" gradientUnits="userSpaceOnUse" x1="1779" y1="516.5" x2="1779" y2="75.5" gradientTransform="matrix(1 0 0 -1 0 1002)">
	<stop  offset="0" style="stop-color:#FF0000"/>
	<stop  offset="1" style="stop-color:#846B00"/>
</linearGradient>
<path class="st7" d="M2220,926.5h-882c0-243.6,197.4-441,441-441S2220,682.9,2220,926.5z"/>
<linearGradient id="SVGID_6_" gradientUnits="userSpaceOnUse" x1="1779" y1="516.5" x2="1779" y2="75.5" gradientTransform="matrix(1 0 0 -1 0 1002)">
	<stop  offset="0" style="stop-color:#FF0000"/>
	<stop  offset="1" style="stop-color:#846B00"/>
</linearGradient>
<path class="st8" d="M2220,926.5h-882c0-243.6,197.4-441,441-441S2220,682.9,2220,926.5z"/>
<path class="st9" d="M912,747H793l35-190l24-110L912,747z"/>
<path class="st2" d="M96,444h100v307H96V444z"/>
<path class="st10" d="M846,747H718V420c70.7,0,128,57.3,128,128V747z"/>
<path class="st2" d="M169,393h-52l-21,54h100L169,393z M164,369l-39,1l-1,23h40V369z"/>
<path class="st10" d="M1112,581h-104l-24,167h128V581z"/>
<path class="st10" d="M1112,500l-82,48l-4,35l86-2V500z"/>
<path class="st10" d="M1112,482l-32-6l-2,44l34-20V482z"/>
<path class="st2" d="M756,747H628V420c70.7,0,128,57.3,128,128V747z"/>
<path class="st11" d="M1305.7,527c-0.1,57.6,7.3,130.8,29.3,221h-163c22.1-90.2,29.4-163.4,29.3-221c-0.1-75-12.7-123.4-21.3-147.9
	c-4.3-12.3-7.7-18.5-8-19.1l0,0h163l0,0c-0.3,0.5-3.7,6.8-8,19.1C1318.3,403.6,1305.7,452,1305.7,527z"/>
<path class="st12" d="M228,485h119v263H228V485z"/>
<path class="st9" d="M167,574.5h51v171.9h-51V574.5z"/>
<path class="st2" d="M512.3,747H382V408.2c0-35.9,29.3-65.2,65.2-65.2c35.8,0,65.2,29.3,65.2,65.2L512.3,747L512.3,747z"/>
<path class="st2" d="M450,351h-6l3-79L450,351z"/>
<path class="st9" d="M347,694h32v52.4h-32V694z M619,748H500l35-190h84V748z"/>
<path class="st13" d="M0,690h37v58H0V690z"/>
<path class="st14" d="M39,616h54v131H39V616z M93,616H63v-52h30V616z"/>
<path class="st11" d="M1430,524h108v224h-108V524z M1447,499h75v25h-75V499z M1510,499h-53v-23.5c0-14.6,11.9-26.5,26.5-26.5
	s26.5,11.9,26.5,26.5V499z"/>
<path class="st15" d="M904,463H1008v285H904V463z"/>
<ellipse class="st15" cx="956" cy="462.4" rx="52" ry="77.4"/>
<path class="st12" d="M1349,574h53v174h-53V574z M1402,574h-53v-39l15,12L1402,574z"/>
<path class="st14" d="M1119,431h68v317h-68V431z"/>
<path class="st9" d="M379,694h-17v-69l1,23L379,694z M354,625h8v69h-8V625z"/>
<g class="st3">
	
		<linearGradient id="SVGID_7_" gradientUnits="userSpaceOnUse" x1="1501" y1="4" x2="1501" y2="1004" gradientTransform="matrix(1 0 0 -1 0 1002)">
		<stop  offset="0" style="stop-color:#D72C32"/>
		<stop  offset="1" style="stop-color:#649EB9"/>
	</linearGradient>
	<path class="st16" d="M0-2h3002V998H0V-2z"/>
</g>
<linearGradient id="SVGID_8_" gradientUnits="userSpaceOnUse" x1="1500.3071" y1="236.0001" x2="1500.3071" y2="-6.78" gradientTransform="matrix(1 0 0 -1 0 1002)">
	<stop  offset="0" style="stop-color:#5D224B"/>
	<stop  offset="1" style="stop-color:#040050"/>
</linearGradient>
<path class="st17" d="M-2,771.9c0,0,2998.2-23,3002.2,22.2s1.8,205.9,1.8,205.9l-3004,8.8V771.9z"/>
<linearGradient id="SVGID_9_" gradientUnits="userSpaceOnUse" x1="1963" y1="111" x2="1963" y2="445" gradientTransform="matrix(1 0 0 -1 0 1002)">
	<stop  offset="0" style="stop-color:#28004B"/>
	<stop  offset="1" style="stop-color:#040050"/>
</linearGradient>
<path class="st18" d="M1937,557h52v334h-52V557z"/>
<linearGradient id="SVGID_10_" gradientUnits="userSpaceOnUse" x1="2137" y1="111" x2="2137" y2="409" gradientTransform="matrix(1 0 0 -1 0 1002)">
	<stop  offset="0" style="stop-color:#28004B"/>
	<stop  offset="1" style="stop-color:#040050"/>
</linearGradient>
<path class="st19" d="M2111,593h52v298h-52V593z"/>
<linearGradient id="SVGID_11_" gradientUnits="userSpaceOnUse" x1="2594.5" y1="154" x2="2594.5" y2="296" gradientTransform="matrix(1 0 0 -1 0 1002)">
	<stop  offset="0" style="stop-color:#28004B"/>
	<stop  offset="1" style="stop-color:#040050"/>
</linearGradient>
<path class="st20" d="M2191,706h807v142h-807V706z"/>
<linearGradient id="SVGID_12_" gradientUnits="userSpaceOnUse" x1="2614" y1="296" x2="2614" y2="438" gradientTransform="matrix(1 0 0 -1 0 1002)">
	<stop  offset="0" style="stop-color:#28004B"/>
	<stop  offset="1" style="stop-color:#040050"/>
</linearGradient>
<path class="st21" d="M2234,564h760v142h-760V564z"/>
<linearGradient id="SVGID_13_" gradientUnits="userSpaceOnUse" x1="3785" y1="374" x2="3785" y2="516" gradientTransform="matrix(-1 0 0 1 6490 190)">
	<stop  offset="0" style="stop-color:#28004B"/>
	<stop  offset="1" style="stop-color:#040050"/>
</linearGradient>
<path class="st22" d="M2415,564h580v142h-580V564z"/>
<linearGradient id="SVGID_14_" gradientUnits="userSpaceOnUse" x1="3648.5" y1="374" x2="3648.5" y2="516" gradientTransform="matrix(-1 0 0 1 6490 190)">
	<stop  offset="0" style="stop-color:#28004B"/>
	<stop  offset="1" style="stop-color:#040050"/>
</linearGradient>
<path class="st23" d="M2681,564h321v142h-321V564z"/>
<linearGradient id="SVGID_15_" gradientUnits="userSpaceOnUse" x1="3819.5" y1="232" x2="3819.5" y2="374" gradientTransform="matrix(-1 0 0 1 6490 190)">
	<stop  offset="0" style="stop-color:#28004B"/>
	<stop  offset="1" style="stop-color:#040050"/>
</linearGradient>
<path class="st24" d="M2339,422h663v142h-663V422z"/>
<linearGradient id="SVGID_16_" gradientUnits="userSpaceOnUse" x1="3665" y1="232" x2="3665" y2="374" gradientTransform="matrix(-1 0 0 1 6490 190)">
	<stop  offset="0" style="stop-color:#28004B"/>
	<stop  offset="1" style="stop-color:#040050"/>
</linearGradient>
<path class="st25" d="M2648,422h354v142h-354V422z"/>
<linearGradient id="SVGID_17_" gradientUnits="userSpaceOnUse" x1="3942" y1="90" x2="3942" y2="232" gradientTransform="matrix(-1 0 0 1 6490 190)">
	<stop  offset="0" style="stop-color:#28004B"/>
	<stop  offset="1" style="stop-color:#040050"/>
</linearGradient>
<path class="st26" d="M2415,280h266v142h-266V280z"/>
<linearGradient id="SVGID_18_" gradientUnits="userSpaceOnUse" x1="3810" y1="161" x2="3490" y2="161" gradientTransform="matrix(-1 0 0 1 6490 190)">
	<stop  offset="0" style="stop-color:#28004B"/>
	<stop  offset="1" style="stop-color:#040050"/>
</linearGradient>
<path class="st27" d="M2680,280h320v142h-320V280z"/>
<linearGradient id="SVGID_19_" gradientUnits="userSpaceOnUse" x1="3854" y1="-97" x2="3854" y2="90" gradientTransform="matrix(-1 0 0 1 6490 190)">
	<stop  offset="0" style="stop-color:#28004B"/>
	<stop  offset="1" style="stop-color:#040050"/>
</linearGradient>
<path class="st28" d="M2548,101l176-8v187h-176V101z"/>
<linearGradient id="SVGID_20_" gradientUnits="userSpaceOnUse" x1="2949" y1="-97" x2="2949" y2="90" gradientTransform="matrix(1 0 0 1 -139 190)">
	<stop  offset="0" style="stop-color:#28004B"/>
	<stop  offset="1" style="stop-color:#040050"/>
</linearGradient>
<path class="st29" d="M2896,105l-172-12v187h169L2896,105z"/>
<linearGradient id="SVGID_21_" gradientUnits="userSpaceOnUse" x1="2615.5" y1="433" x2="2615.5" y2="575" gradientTransform="matrix(1 0 0 -1 190 1276)">
	<stop  offset="0" style="stop-color:#28004B"/>
	<stop  offset="1" style="stop-color:#040050"/>
</linearGradient>
<path class="st30" d="M2609,701h393v142h-393V701z"/>
<linearGradient id="SVGID_22_" gradientUnits="userSpaceOnUse" x1="4007" y1="511" x2="4007" y2="653" gradientTransform="matrix(-1 0 0 1 6490 190)">
	<stop  offset="0" style="stop-color:#28004B"/>
	<stop  offset="1" style="stop-color:#040050"/>
</linearGradient>
<path class="st31" d="M2361,701h244v142h-244V701z"/>
<path class="st10" d="M1184,391.1l-8-19.1C1176.3,372.6,1179.7,378.8,1184,391.1z"/>
<g class="st32">
	<path class="st10" d="M1240.8,832.1v43.4c0,0,33.7,41.2,66,47.6l181.1-3.5c0,0,12.5-20.6,117.3-59.6c0,0-129.1,22.7-151.1,18.5
		s-114.4,5-143-2.8l-37.4-40.4L1240.8,832.1L1240.8,832.1z"/>
	<path class="st10" d="M1584.7,868.6l19.1-22.7l14-2.7l-13.7,23L1584.7,868.6z M1507.2,875.6l-0.2-42h-200.2l0.6,5.5l192.3,0.3
		l1.8,36.8L1507.2,875.6z M1240.8,809.4h4.4v27.1h-4.4V809.4z M1248.1,809.4h4.4v27.1h-4.4V809.4z M1255.5,809.4h4.4v27.1h-4.4
		V809.4z M1262.8,809.4h4.4v27.1h-4.4V809.4z M1270.1,809.4h4.4v27.1h-4.4V809.4z M1277.5,809.4h4.4v27.1h-4.4V809.4z M1284.8,809.4
		h4.4v27.1h-4.4V809.4z M1292.1,809.4h4.4v27.1h-4.4V809.4z M1299.5,809.4h4.4v27.1h-4.4V809.4z"/>
	<path class="st10" d="M1306.8,809.4h4.4v27.1h-4.4V809.4z M1314.1,809.4h4.4v27.1h-4.4V809.4z M1321.5,809.4h4.4v27.1h-4.4V809.4z
		 M1328.8,809.4h4.4v27.1h-4.4V809.4z M1336.1,809.4h4.4v27.1h-4.4V809.4z M1343.5,809.4h4.4v27.1h-4.4V809.4z M1350.8,809.4h4.4
		v27.1h-4.4V809.4z M1358.1,809.4h4.4v27.1h-4.4V809.4z M1365.5,809.4h4.4v27.1h-4.4V809.4z M1319.3,838h2.2v41.1h-2.2V838z
		 M1297.3,836.5h2.2v41.1h-2.2V836.5z M1333.9,838h2.2v41.1h-2.2V838z M1348.6,838h2.2v41.1h-2.2V838z M1363.3,838h2.2v41.1h-2.2
		V838z M1377.9,838h2.2v41.1h-2.2V838z M1392.6,838h2.2v41.1h-2.2V838z M1407.3,838h2.2v41.1h-2.2V838z M1421.9,838h2.2v41.1h-2.2
		V838z M1436.6,838h2.2v41.1h-2.2V838z M1451.3,838h2.2v41.1h-2.2V838z M1465.9,838h2.2v41.1h-2.2V838z M1483.5,838h2.2v41.1h-2.2
		V838z"/>
	<path class="st10" d="M1240.8,821.9V808h128.3v4.4L1240.8,821.9z M1239.7,834.6c0,0,190.6,21.1,276.6,9c0,0-3.3-5.7-9.8-4.6
		C1500,840.1,1328.1,812.8,1239.7,834.6z M1289.2,852.7h215.6v5.9h-215.6L1289.2,852.7z"/>
	<path class="st10" d="M1240.8,808.4c0,0-13.9-7.1-20.5-10c-6.6-2.9,0,0,0,0s0-1.5,2.9-1.5s-0.7,0.7,19.8,11L1240.8,808.4
		L1240.8,808.4z"/>
	
		<linearGradient id="SVGID_23_" gradientUnits="userSpaceOnUse" x1="1211.4" y1="174.99" x2="1211.4" y2="216" gradientTransform="matrix(1 0 0 -1 0 1002)">
		<stop  offset="0" style="stop-color:#28004B"/>
		<stop  offset="1" style="stop-color:#040050"/>
	</linearGradient>
	<path class="st33" d="M1212.5,786c0,0-10.2,16.8-14.4,29.7c0,0,1.7,3.3,3.1,7s-1.5,2.2,1.5,3.7s0,0,4.4,0.7h11
		c0,0-4.3-12.2,6.6-29.9L1212.5,786L1212.5,786z"/>
</g>
<linearGradient id="SVGID_24_" gradientUnits="userSpaceOnUse" x1="1774" y1="357" x2="1774" y2="257" gradientTransform="matrix(1 0 0 -1 0 1002)">
	<stop  offset="0" style="stop-color:#64001C"/>
	<stop  offset="1" style="stop-color:#DF6B00"/>
</linearGradient>
<path class="st34" d="M1874,745h-200c0-55.2,44.8-100,100-100S1874,689.8,1874,745z"/>
<linearGradient id="SVGID_25_" gradientUnits="userSpaceOnUse" x1="1779" y1="396" x2="1779" y2="196" gradientTransform="matrix(1 0 0 -1 0 1002)">
	<stop  offset="0" style="stop-color:#FF0000"/>
	<stop  offset="1" style="stop-color:#846B00"/>
</linearGradient>
<path class="st35" d="M1979,806h-400c0-110.5,89.5-200,200-200S1979,695.5,1979,806z"/>
<linearGradient id="SVGID_26_" gradientUnits="userSpaceOnUse" x1="1779" y1="423" x2="1779" y2="169" gradientTransform="matrix(1 0 0 -1 0 1002)">
	<stop  offset="0" style="stop-color:#FF0000"/>
	<stop  offset="1" style="stop-color:#846B00"/>
</linearGradient>
<path class="st36" d="M2033,833h-508c0-140.3,113.7-254,254-254S2033,692.7,2033,833z"/>
<linearGradient id="SVGID_27_" gradientUnits="userSpaceOnUse" x1="1779" y1="464.5" x2="1779" y2="127.5" gradientTransform="matrix(1 0 0 -1 0 1002)">
	<stop  offset="0" style="stop-color:#FF0000"/>
	<stop  offset="1" style="stop-color:#846B00"/>
</linearGradient>
<path class="st37" d="M2116,874.5h-674c0-186.1,150.9-337,337-337S2116,688.4,2116,874.5z"/>
<linearGradient id="SVGID_28_" gradientUnits="userSpaceOnUse" x1="1779" y1="439.5" x2="1779" y2="152.5" gradientTransform="matrix(1 0 0 -1 0 1002)">
	<stop  offset="0" style="stop-color:#FF0000"/>
	<stop  offset="1" style="stop-color:#846B00"/>
</linearGradient>
<path class="st38" d="M2066,849.5h-574c0-158.5,128.5-287,287-287S2066,691,2066,849.5z"/>
<linearGradient id="SVGID_29_" gradientUnits="userSpaceOnUse" x1="1779" y1="396" x2="1779" y2="196" gradientTransform="matrix(1 0 0 -1 0 1002)">
	<stop  offset="0" style="stop-color:#FF0000"/>
	<stop  offset="1" style="stop-color:#846B00"/>
</linearGradient>
<path class="st39" d="M1979,806h-400c0-110.5,89.5-200,200-200S1979,695.5,1979,806z"/>
<linearGradient id="SVGID_30_" gradientUnits="userSpaceOnUse" x1="1779" y1="364.5" x2="1779" y2="227.5" gradientTransform="matrix(1 0 0 -1 0 1002)">
	<stop  offset="0" style="stop-color:#FF0000"/>
	<stop  offset="1" style="stop-color:#846B00"/>
</linearGradient>
<path class="st40" d="M1916,774.5h-274c0-75.7,61.3-137,137-137S1916,698.8,1916,774.5z"/>
<linearGradient id="SVGID_31_" gradientUnits="userSpaceOnUse" x1="1779" y1="382" x2="1779" y2="210" gradientTransform="matrix(1 0 0 -1 0 1002)">
	<stop  offset="0" style="stop-color:#FF0000"/>
	<stop  offset="1" style="stop-color:#846B00"/>
</linearGradient>
<path class="st41" d="M1951,792h-344c0-95,77-172,172-172S1951,697,1951,792z"/>
<linearGradient id="SVGID_32_" gradientUnits="userSpaceOnUse" x1="1957" y1="470" x2="1963" y2="470" gradientTransform="matrix(1 0 0 -1 0 1002)">
	<stop  offset="0" style="stop-color:#28004B"/>
	<stop  offset="1" style="stop-color:#040050"/>
</linearGradient>
<path class="st42" d="M1957,507h6v50h-6V507z"/>
<linearGradient id="SVGID_33_" gradientUnits="userSpaceOnUse" x1="2133" y1="434" x2="2139" y2="434" gradientTransform="matrix(1 0 0 -1 0 1002)">
	<stop  offset="0" style="stop-color:#28004B"/>
	<stop  offset="1" style="stop-color:#040050"/>
</linearGradient>
<path class="st43" d="M2133,543h6v50h-6V543z"/>
<linearGradient id="SVGID_34_" gradientUnits="userSpaceOnUse" x1="1923" y1="498.3333" x2="1993" y2="498.3333" gradientTransform="matrix(1 0 0 -1 0 1002)">
	<stop  offset="0" style="stop-color:#28004B"/>
	<stop  offset="1" style="stop-color:#040050"/>
</linearGradient>
<path class="st44" d="M1923,507c0,0,41-15,70,0H1923z"/>
<linearGradient id="SVGID_35_" gradientUnits="userSpaceOnUse" x1="2100" y1="462.3333" x2="2170" y2="462.3333" gradientTransform="matrix(1 0 0 -1 0 1002)">
	<stop  offset="0" style="stop-color:#28004B"/>
	<stop  offset="1" style="stop-color:#040050"/>
</linearGradient>
<path class="st45" d="M2100,543c0,0,41-15,70,0H2100z"/>
<linearGradient id="SVGID_36_" gradientUnits="userSpaceOnUse" x1="1989" y1="137.5" x2="3002" y2="137.5" gradientTransform="matrix(1 0 0 -1 0 1002)">
	<stop  offset="0" style="stop-color:#25004B"/>
	<stop  offset="1" style="stop-color:#040050"/>
</linearGradient>
<path class="st46" d="M1989,838h1013v53H1989V838z"/>
<linearGradient id="SVGID_37_" gradientUnits="userSpaceOnUse" x1="1854" y1="123.5" x2="1937" y2="123.5" gradientTransform="matrix(1 0 0 -1 0 1002)">
	<stop  offset="0" style="stop-color:#25004B"/>
	<stop  offset="1" style="stop-color:#040050"/>
</linearGradient>
<path class="st47" d="M1854,866h83v25h-83V866z"/>
<linearGradient id="SVGID_38_" gradientUnits="userSpaceOnUse" x1="1896" y1="142" x2="1937" y2="142" gradientTransform="matrix(1 0 0 -1 0 1002)">
	<stop  offset="0" style="stop-color:#25004B"/>
	<stop  offset="1" style="stop-color:#040050"/>
</linearGradient>
<path class="st48" d="M1896,854h41v12h-41V854z"/>
<linearGradient id="SVGID_39_" gradientUnits="userSpaceOnUse" x1="1922" y1="154" x2="1937" y2="154" gradientTransform="matrix(1 0 0 -1 0 1002)">
	<stop  offset="0" style="stop-color:#25004B"/>
	<stop  offset="1" style="stop-color:#040050"/>
</linearGradient>
<path class="st49" d="M1922,842h15v12h-15V842z"/>
<linearGradient id="SVGID_40_" gradientUnits="userSpaceOnUse" x1="2882" y1="668" x2="2882" y2="677" gradientTransform="matrix(1 0 0 -1 0 1002)">
	<stop  offset="0" style="stop-color:#28004B"/>
	<stop  offset="1" style="stop-color:#040050"/>
</linearGradient>
<path class="st50" d="M2875,334c0,0,12.5-3,14-9v9H2875z"/>
<linearGradient id="SVGID_41_" gradientUnits="userSpaceOnUse" x1="4019.2065" y1="668" x2="4019.2065" y2="677" gradientTransform="matrix(-0.8421 0 0 -1 6281.5737 1002)">
	<stop  offset="0" style="stop-color:#28004B"/>
	<stop  offset="1" style="stop-color:#040050"/>
</linearGradient>
<path class="st51" d="M2889,334h16c0,0-14.3-3-16-9"/>
<linearGradient id="SVGID_42_" gradientUnits="userSpaceOnUse" x1="2875" y1="654" x2="2905" y2="654" gradientTransform="matrix(1 0 0 -1 0 1002)">
	<stop  offset="0" style="stop-color:#28004B"/>
	<stop  offset="1" style="stop-color:#040050"/>
</linearGradient>
<path class="st52" d="M2875,334h30v28h-30V334z"/>
<linearGradient id="SVGID_43_" gradientUnits="userSpaceOnUse" x1="2772" y1="670" x2="2772" y2="679" gradientTransform="matrix(1 0 0 -1 0 1002)">
	<stop  offset="0" style="stop-color:#28004B"/>
	<stop  offset="1" style="stop-color:#040050"/>
</linearGradient>
<path class="st53" d="M2765,332c0,0,12.5-3,14-9v9H2765z"/>
<linearGradient id="SVGID_44_" gradientUnits="userSpaceOnUse" x1="4149.832" y1="670" x2="4149.832" y2="679" gradientTransform="matrix(-0.8421 0 0 -1 6281.5737 1002)">
	<stop  offset="0" style="stop-color:#28004B"/>
	<stop  offset="1" style="stop-color:#040050"/>
</linearGradient>
<path class="st54" d="M2779,332h16c0,0-14.3-3-16-9"/>
<linearGradient id="SVGID_45_" gradientUnits="userSpaceOnUse" x1="2765" y1="656" x2="2795" y2="656" gradientTransform="matrix(1 0 0 -1 0 1002)">
	<stop  offset="0" style="stop-color:#28004B"/>
	<stop  offset="1" style="stop-color:#040050"/>
</linearGradient>
<path class="st55" d="M2765,332h30v28h-30V332z"/>
<linearGradient id="SVGID_46_" gradientUnits="userSpaceOnUse" x1="2757" y1="518" x2="2757" y2="527" gradientTransform="matrix(1 0 0 -1 0 1002)">
	<stop  offset="0" style="stop-color:#28004B"/>
	<stop  offset="1" style="stop-color:#040050"/>
</linearGradient>
<path class="st56" d="M2750,484c0,0,12.5-3,14-9v9H2750z"/>
<linearGradient id="SVGID_47_" gradientUnits="userSpaceOnUse" x1="4167.645" y1="518" x2="4167.645" y2="527" gradientTransform="matrix(-0.8421 0 0 -1 6281.5737 1002)">
	<stop  offset="0" style="stop-color:#28004B"/>
	<stop  offset="1" style="stop-color:#040050"/>
</linearGradient>
<path class="st57" d="M2764,484h16c0,0-14.3-3-16-9"/>
<linearGradient id="SVGID_48_" gradientUnits="userSpaceOnUse" x1="2750" y1="504" x2="2780" y2="504" gradientTransform="matrix(1 0 0 -1 0 1002)">
	<stop  offset="0" style="stop-color:#28004B"/>
	<stop  offset="1" style="stop-color:#040050"/>
</linearGradient>
<path class="st58" d="M2750,484h30v28h-30V484z"/>
<linearGradient id="SVGID_49_" gradientUnits="userSpaceOnUse" x1="2943" y1="518" x2="2943" y2="527" gradientTransform="matrix(1 0 0 -1 0 1002)">
	<stop  offset="0" style="stop-color:#28004B"/>
	<stop  offset="1" style="stop-color:#040050"/>
</linearGradient>
<path class="st59" d="M2936,484c0,0,12.5-3,14-9v9H2936z"/>
<linearGradient id="SVGID_50_" gradientUnits="userSpaceOnUse" x1="3946.7686" y1="518" x2="3946.7686" y2="527" gradientTransform="matrix(-0.8421 0 0 -1 6281.5737 1002)">
	<stop  offset="0" style="stop-color:#28004B"/>
	<stop  offset="1" style="stop-color:#040050"/>
</linearGradient>
<path class="st60" d="M2950,484h16c0,0-14.3-3-16-9"/>
<linearGradient id="SVGID_51_" gradientUnits="userSpaceOnUse" x1="2936" y1="504" x2="2966" y2="504" gradientTransform="matrix(1 0 0 -1 0 1002)">
	<stop  offset="0" style="stop-color:#28004B"/>
	<stop  offset="1" style="stop-color:#040050"/>
</linearGradient>
<path class="st61" d="M2936,484h30v28h-30V484z"/>
<linearGradient id="SVGID_52_" gradientUnits="userSpaceOnUse" x1="2852" y1="519" x2="2852" y2="528" gradientTransform="matrix(1 0 0 -1 0 1002)">
	<stop  offset="0" style="stop-color:#28004B"/>
	<stop  offset="1" style="stop-color:#040050"/>
</linearGradient>
<path class="st62" d="M2845,483c0,0,12.5-3,14-9v9H2845z"/>
<linearGradient id="SVGID_53_" gradientUnits="userSpaceOnUse" x1="4054.8318" y1="519" x2="4054.8318" y2="528" gradientTransform="matrix(-0.8421 0 0 -1 6281.5737 1002)">
	<stop  offset="0" style="stop-color:#28004B"/>
	<stop  offset="1" style="stop-color:#040050"/>
</linearGradient>
<path class="st63" d="M2859,483h16c0,0-14.3-3-16-9"/>
<linearGradient id="SVGID_54_" gradientUnits="userSpaceOnUse" x1="2845" y1="505" x2="2875" y2="505" gradientTransform="matrix(1 0 0 -1 0 1002)">
	<stop  offset="0" style="stop-color:#28004B"/>
	<stop  offset="1" style="stop-color:#040050"/>
</linearGradient>
<path class="st64" d="M2845,483h30v28h-30V483z"/>
<g class="st0">
	
		<linearGradient id="SVGID_55_" gradientUnits="userSpaceOnUse" x1="2582.135" y1="661" x2="2582.135" y2="670" gradientTransform="matrix(1 0 0 -1 0 1002)">
		<stop  offset="0" style="stop-color:#28004B"/>
		<stop  offset="1" style="stop-color:#040050"/>
	</linearGradient>
	<path class="st65" d="M2577,341c0,0,9.2-3,10.3-9v9H2577z"/>
	
		<linearGradient id="SVGID_56_" gradientUnits="userSpaceOnUse" x1="4380.0483" y1="661" x2="4380.0483" y2="670" gradientTransform="matrix(-0.8421 0 0 -1 6281.5737 1002)">
		<stop  offset="0" style="stop-color:#28004B"/>
		<stop  offset="1" style="stop-color:#040050"/>
	</linearGradient>
	<path class="st66" d="M2587.3,341h11.7c0,0-10.5-3-11.7-9"/>
	
		<linearGradient id="SVGID_57_" gradientUnits="userSpaceOnUse" x1="2577" y1="647" x2="2599" y2="647" gradientTransform="matrix(1 0 0 -1 0 1002)">
		<stop  offset="0" style="stop-color:#28004B"/>
		<stop  offset="1" style="stop-color:#040050"/>
	</linearGradient>
	<path class="st67" d="M2577,341h22v28h-22V341z"/>
</g>
<g class="st0">
	
		<linearGradient id="SVGID_58_" gradientUnits="userSpaceOnUse" x1="2484.135" y1="664" x2="2484.135" y2="673" gradientTransform="matrix(1 0 0 -1 0 1002)">
		<stop  offset="0" style="stop-color:#28004B"/>
		<stop  offset="1" style="stop-color:#040050"/>
	</linearGradient>
	<path class="st68" d="M2479,338c0,0,9.2-3,10.3-9v9H2479z"/>
	
		<linearGradient id="SVGID_59_" gradientUnits="userSpaceOnUse" x1="4496.4243" y1="664" x2="4496.4243" y2="673" gradientTransform="matrix(-0.8421 0 0 -1 6281.5737 1002)">
		<stop  offset="0" style="stop-color:#28004B"/>
		<stop  offset="1" style="stop-color:#040050"/>
	</linearGradient>
	<path class="st69" d="M2489.3,338h11.7c0,0-10.5-3-11.7-9"/>
	
		<linearGradient id="SVGID_60_" gradientUnits="userSpaceOnUse" x1="2479" y1="650" x2="2501" y2="650" gradientTransform="matrix(1 0 0 -1 0 1002)">
		<stop  offset="0" style="stop-color:#28004B"/>
		<stop  offset="1" style="stop-color:#040050"/>
	</linearGradient>
	<path class="st70" d="M2479,338h22v28h-22V338z"/>
</g>
<linearGradient id="SVGID_61_" gradientUnits="userSpaceOnUse" x1="2644.25" y1="722" x2="2644.25" y2="778.4445" gradientTransform="matrix(1 0 0 -1 0 1002)">
	<stop  offset="0" style="stop-color:#28004B"/>
	<stop  offset="1" style="stop-color:#040050"/>
</linearGradient>
<path class="st71" d="M2579.5,280c0,0,53.5-127,129.5,0H2579.5z"/>
<linearGradient id="SVGID_62_" gradientUnits="userSpaceOnUse" x1="2816.25" y1="722" x2="2816.25" y2="772" gradientTransform="matrix(1 0 0 -1 0 1002)">
	<stop  offset="0" style="stop-color:#28004B"/>
	<stop  offset="1" style="stop-color:#040050"/>
</linearGradient>
<path class="st72" d="M2761.5,280c0,0,52.2-112.5,109.5,0H2761.5z"/>
<linearGradient id="SVGID_63_" gradientUnits="userSpaceOnUse" x1="2401.5" y1="530.16" x2="2401.5" y2="555.84" gradientTransform="matrix(1 0 0 -1 0 1002)">
	<stop  offset="0" style="stop-color:#28004B"/>
	<stop  offset="1" style="stop-color:#040050"/>
</linearGradient>
<path class="st73" d="M2420,471.8h-37v-7.2c0-10.2,8.3-18.5,18.5-18.5s18.5,8.3,18.5,18.5V471.8z"/>
<linearGradient id="SVGID_64_" gradientUnits="userSpaceOnUse" x1="2278.5" y1="341.16" x2="2278.5" y2="396" gradientTransform="matrix(1 0 0 -1 0 1002)">
	<stop  offset="0" style="stop-color:#28004B"/>
	<stop  offset="1" style="stop-color:#040050"/>
</linearGradient>
<path class="st74" d="M2297,660.8h-37v-36.3c0-10.2,8.3-18.5,18.5-18.5s18.5,8.3,18.5,18.5V660.8z"/>
<linearGradient id="SVGID_65_" gradientUnits="userSpaceOnUse" x1="2495.5" y1="530.16" x2="2495.5" y2="555.84" gradientTransform="matrix(1 0 0 -1 0 1002)">
	<stop  offset="0" style="stop-color:#28004B"/>
	<stop  offset="1" style="stop-color:#040050"/>
</linearGradient>
<path class="st75" d="M2514,471.8h-37v-7.2c0-10.2,8.3-18.5,18.5-18.5s18.5,8.3,18.5,18.5V471.8z"/>
<linearGradient id="SVGID_66_" gradientUnits="userSpaceOnUse" x1="2590.5" y1="531.16" x2="2590.5" y2="556.84" gradientTransform="matrix(1 0 0 -1 0 1002)">
	<stop  offset="0" style="stop-color:#28004B"/>
	<stop  offset="1" style="stop-color:#040050"/>
</linearGradient>
<path class="st76" d="M2609,470.8h-37v-7.2c0-10.2,8.3-18.5,18.5-18.5s18.5,8.3,18.5,18.5V470.8z"/>
<linearGradient id="SVGID_67_" gradientUnits="userSpaceOnUse" x1="2278.5" y1="426.4276" x2="2278.5" y2="432.4275" gradientTransform="matrix(1 0 0 1.1667 0 150.4653)">
	<stop  offset="0" style="stop-color:#28004B"/>
	<stop  offset="1" style="stop-color:#040050"/>
</linearGradient>
<path class="st77" d="M2260,648h37v7h-37V648z"/>
<linearGradient id="SVGID_68_" gradientUnits="userSpaceOnUse" x1="2359.5" y1="342.16" x2="2359.5" y2="397" gradientTransform="matrix(1 0 0 -1 0 1002)">
	<stop  offset="0" style="stop-color:#28004B"/>
	<stop  offset="1" style="stop-color:#040050"/>
</linearGradient>
<path class="st78" d="M2378,659.8h-37v-36.3c0-10.2,8.3-18.5,18.5-18.5s18.5,8.3,18.5,18.5V659.8z"/>
<linearGradient id="SVGID_69_" gradientUnits="userSpaceOnUse" x1="2359.5" y1="425.5676" x2="2359.5" y2="431.5675" gradientTransform="matrix(1 0 0 1.1667 0 150.4653)">
	<stop  offset="0" style="stop-color:#28004B"/>
	<stop  offset="1" style="stop-color:#040050"/>
</linearGradient>
<path class="st79" d="M2341,647h37v7h-37V647z"/>
<linearGradient id="SVGID_70_" gradientUnits="userSpaceOnUse" x1="2415" y1="399.5" x2="2684" y2="399.5" gradientTransform="matrix(1 0 0 -1 0 1002)">
	<stop  offset="0" style="stop-color:#28004B"/>
	<stop  offset="1" style="stop-color:#040050"/>
</linearGradient>
<path class="st80" d="M2415,600h269v5h-269V600z"/>
<linearGradient id="SVGID_71_" gradientUnits="userSpaceOnUse" x1="2415" y1="389.5" x2="2684" y2="389.5" gradientTransform="matrix(1 0 0 -1 0 1002)">
	<stop  offset="0" style="stop-color:#28004B"/>
	<stop  offset="1" style="stop-color:#040050"/>
</linearGradient>
<path class="st81" d="M2415,610h269v5h-269V610z"/>
<linearGradient id="SVGID_72_" gradientUnits="userSpaceOnUse" x1="2415" y1="379.5" x2="2684" y2="379.5" gradientTransform="matrix(1 0 0 -1 0 1002)">
	<stop  offset="0" style="stop-color:#28004B"/>
	<stop  offset="1" style="stop-color:#040050"/>
</linearGradient>
<path class="st82" d="M2415,620h269v5h-269V620z"/>
<linearGradient id="SVGID_73_" gradientUnits="userSpaceOnUse" x1="2415" y1="369.5" x2="2684" y2="369.5" gradientTransform="matrix(1 0 0 -1 0 1002)">
	<stop  offset="0" style="stop-color:#28004B"/>
	<stop  offset="1" style="stop-color:#040050"/>
</linearGradient>
<path class="st83" d="M2415,630h269v5h-269V630z"/>
<linearGradient id="SVGID_74_" gradientUnits="userSpaceOnUse" x1="2415" y1="359.5" x2="2684" y2="359.5" gradientTransform="matrix(1 0 0 -1 0 1002)">
	<stop  offset="0" style="stop-color:#28004B"/>
	<stop  offset="1" style="stop-color:#040050"/>
</linearGradient>
<path class="st84" d="M2415,640h269v5h-269V640z"/>
<linearGradient id="SVGID_75_" gradientUnits="userSpaceOnUse" x1="2415" y1="349.5" x2="2684" y2="349.5" gradientTransform="matrix(1 0 0 -1 0 1002)">
	<stop  offset="0" style="stop-color:#28004B"/>
	<stop  offset="1" style="stop-color:#040050"/>
</linearGradient>
<path class="st85" d="M2415,650h269v5h-269V650z"/>
<linearGradient id="SVGID_76_" gradientUnits="userSpaceOnUse" x1="2415" y1="339.5" x2="2684" y2="339.5" gradientTransform="matrix(1 0 0 -1 0 1002)">
	<stop  offset="0" style="stop-color:#28004B"/>
	<stop  offset="1" style="stop-color:#040050"/>
</linearGradient>
<path class="st86" d="M2415,660h269v5h-269V660z"/>
<linearGradient id="SVGID_77_" gradientUnits="userSpaceOnUse" x1="2361" y1="271.5" x2="2605" y2="271.5" gradientTransform="matrix(1 0 0 -1 0 1002)">
	<stop  offset="0" style="stop-color:#28004B"/>
	<stop  offset="1" style="stop-color:#040050"/>
</linearGradient>
<path class="st87" d="M2361,728h244v5h-244V728z"/>
<linearGradient id="SVGID_78_" gradientUnits="userSpaceOnUse" x1="2361" y1="261.5" x2="2605" y2="261.5" gradientTransform="matrix(1 0 0 -1 0 1002)">
	<stop  offset="0" style="stop-color:#28004B"/>
	<stop  offset="1" style="stop-color:#040050"/>
</linearGradient>
<path class="st88" d="M2361,738h244v5h-244V738z"/>
<linearGradient id="SVGID_79_" gradientUnits="userSpaceOnUse" x1="2361" y1="251.5" x2="2605" y2="251.5" gradientTransform="matrix(1 0 0 -1 0 1002)">
	<stop  offset="0" style="stop-color:#28004B"/>
	<stop  offset="1" style="stop-color:#040050"/>
</linearGradient>
<path class="st89" d="M2361,748h244v5h-244V748z"/>
<linearGradient id="SVGID_80_" gradientUnits="userSpaceOnUse" x1="2361" y1="241.5" x2="2605" y2="241.5" gradientTransform="matrix(1 0 0 -1 0 1002)">
	<stop  offset="0" style="stop-color:#28004B"/>
	<stop  offset="1" style="stop-color:#040050"/>
</linearGradient>
<path class="st90" d="M2361,758h244v5h-244V758z"/>
<linearGradient id="SVGID_81_" gradientUnits="userSpaceOnUse" x1="2361" y1="231.5" x2="2605" y2="231.5" gradientTransform="matrix(1 0 0 -1 0 1002)">
	<stop  offset="0" style="stop-color:#28004B"/>
	<stop  offset="1" style="stop-color:#040050"/>
</linearGradient>
<path class="st91" d="M2361,768h244v5h-244V768z"/>
<linearGradient id="SVGID_82_" gradientUnits="userSpaceOnUse" x1="2361" y1="221.5" x2="2605" y2="221.5" gradientTransform="matrix(1 0 0 -1 0 1002)">
	<stop  offset="0" style="stop-color:#28004B"/>
	<stop  offset="1" style="stop-color:#040050"/>
</linearGradient>
<path class="st92" d="M2361,778h244v5h-244V778z"/>
<linearGradient id="SVGID_83_" gradientUnits="userSpaceOnUse" x1="2361" y1="211.5" x2="2605" y2="211.5" gradientTransform="matrix(1 0 0 -1 0 1002)">
	<stop  offset="0" style="stop-color:#28004B"/>
	<stop  offset="1" style="stop-color:#040050"/>
</linearGradient>
<path class="st93" d="M2361,788h244v5h-244V788z"/>
<linearGradient id="SVGID_84_" gradientUnits="userSpaceOnUse" x1="2361" y1="201.5" x2="2605" y2="201.5" gradientTransform="matrix(1 0 0 -1 0 1002)">
	<stop  offset="0" style="stop-color:#28004B"/>
	<stop  offset="1" style="stop-color:#040050"/>
</linearGradient>
<path class="st94" d="M2361,798h244v5h-244V798z"/>
<linearGradient id="SVGID_85_" gradientUnits="userSpaceOnUse" x1="2415" y1="329.5" x2="2684" y2="329.5" gradientTransform="matrix(1 0 0 -1 0 1002)">
	<stop  offset="0" style="stop-color:#28004B"/>
	<stop  offset="1" style="stop-color:#040050"/>
</linearGradient>
<path class="st95" d="M2415,670h269v5h-269V670z"/>
<linearGradient id="SVGID_86_" gradientUnits="userSpaceOnUse" x1="2496" y1="473" x2="2496" y2="507" gradientTransform="matrix(1 0 0 -1 0 1002)">
	<stop  offset="0" style="stop-color:#28004B"/>
	<stop  offset="1" style="stop-color:#040050"/>
</linearGradient>
<path class="st96" d="M2383,495h226v34h-226V495z"/>
<linearGradient id="SVGID_87_" gradientUnits="userSpaceOnUse" x1="2498" y1="659.2745" x2="2498" y2="693.2737" gradientTransform="matrix(1 0 0 0.2353 0 381.8727)">
	<stop  offset="0" style="stop-color:#28004B"/>
	<stop  offset="1" style="stop-color:#040050"/>
</linearGradient>
<path class="st97" d="M2385,537h226v8h-226V537z"/>
<linearGradient id="SVGID_88_" gradientUnits="userSpaceOnUse" x1="2283" y1="247" x2="2283" y2="274" gradientTransform="matrix(1 0 0 -1 0 1002)">
	<stop  offset="0" style="stop-color:#28004B"/>
	<stop  offset="1" style="stop-color:#040050"/>
</linearGradient>
<path class="st98" d="M2222,728h122v27h-122V728z"/>
<linearGradient id="SVGID_89_" gradientUnits="userSpaceOnUse" x1="2283" y1="212" x2="2283" y2="239" gradientTransform="matrix(1 0 0 -1 0 1002)">
	<stop  offset="0" style="stop-color:#28004B"/>
	<stop  offset="1" style="stop-color:#040050"/>
</linearGradient>
<path class="st99" d="M2222,763h122v27h-122V763z"/>
<linearGradient id="SVGID_90_" gradientUnits="userSpaceOnUse" x1="2283" y1="177" x2="2283" y2="204" gradientTransform="matrix(1 0 0 -1 0 1002)">
	<stop  offset="0" style="stop-color:#28004B"/>
	<stop  offset="1" style="stop-color:#040050"/>
</linearGradient>
<path class="st100" d="M2222,798h122v27h-122V798z"/>
<linearGradient id="SVGID_91_" gradientUnits="userSpaceOnUse" x1="2768.5" y1="353" x2="2768.5" y2="405" gradientTransform="matrix(1 0 0 -1 0 1002)">
	<stop  offset="0" style="stop-color:#28004B"/>
	<stop  offset="1" style="stop-color:#040031"/>
</linearGradient>
<path class="st101" d="M2800,649h-63v-25.8c0-14.5,11.8-26.3,26.3-26.3h11c14.2,0,25.8,11.5,25.8,25.8l0,0V649z"/>
<linearGradient id="SVGID_92_" gradientUnits="userSpaceOnUse" x1="3380.5" y1="4432.7217" x2="3380.5" y2="4511.915" gradientTransform="matrix(0 1 -0.1389 0 3353.7051 -2754)">
	<stop  offset="0" style="stop-color:#28004B"/>
	<stop  offset="1" style="stop-color:#040050"/>
</linearGradient>
<path class="st102" d="M2738,649v-45h-11v45H2738z"/>
<linearGradient id="SVGID_93_" gradientUnits="userSpaceOnUse" x1="3380.5" y1="3914.363" x2="3380.5" y2="3993.5566" gradientTransform="matrix(0 1 -0.1389 0 3353.7051 -2754)">
	<stop  offset="0" style="stop-color:#28004B"/>
	<stop  offset="1" style="stop-color:#040050"/>
</linearGradient>
<path class="st103" d="M2810,649v-45h-11v45H2810z"/>
<linearGradient id="SVGID_94_" gradientUnits="userSpaceOnUse" x1="2768.5" y1="372.2454" x2="2768.5" y2="451.4391" gradientTransform="matrix(1 0 0 0.1389 0 545.2951)">
	<stop  offset="0" style="stop-color:#28004B"/>
	<stop  offset="1" style="stop-color:#040050"/>
</linearGradient>
<path class="st104" d="M2801,597h-65c-6.1,0-11,4.9-11,11l0,0h87C2812,601.9,2807.1,597,2801,597L2801,597z"/>
<linearGradient id="SVGID_95_" gradientUnits="userSpaceOnUse" x1="2769" y1="395.5" x2="2724.3601" y2="395.5" gradientTransform="matrix(1 0 0 -1 0 1002)">
	<stop  offset="0" style="stop-color:#28004B"/>
	<stop  offset="1" style="stop-color:#040050"/>
</linearGradient>
<path class="st105" d="M2725,614.5c0,0-4-9.5,8-11.5s31,7,33,0s3-7,3-7v21L2725,614.5z"/>
<linearGradient id="SVGID_96_" gradientUnits="userSpaceOnUse" x1="3794.9998" y1="395.5" x2="3750.5876" y2="395.5" gradientTransform="matrix(-1 0 0 -1 6563.3599 1002)">
	<stop  offset="0" style="stop-color:#28004B"/>
	<stop  offset="1" style="stop-color:#040050"/>
</linearGradient>
<path class="st106" d="M2812,617c0,0,4.4-12-7.6-14s-31,7-33,0s-3-7-3-7l0.6,21H2812z"/>
<linearGradient id="SVGID_97_" gradientUnits="userSpaceOnUse" x1="2921.5" y1="349" x2="2921.5" y2="401" gradientTransform="matrix(1 0 0 -1 0 1002)">
	<stop  offset="0" style="stop-color:#28004B"/>
	<stop  offset="1" style="stop-color:#040031"/>
</linearGradient>
<path class="st107" d="M2953,653h-63v-25.8c0-14.5,11.8-26.3,26.3-26.3h11c14.2,0,25.8,11.5,25.8,25.8V653z"/>
<linearGradient id="SVGID_98_" gradientUnits="userSpaceOnUse" x1="3384.5" y1="3331.0891" x2="3384.5" y2="3410.2827" gradientTransform="matrix(0 1 -0.1389 0 3353.7051 -2754)">
	<stop  offset="0" style="stop-color:#28004B"/>
	<stop  offset="1" style="stop-color:#040050"/>
</linearGradient>
<path class="st108" d="M2891,653v-45h-11v45H2891z"/>
<linearGradient id="SVGID_99_" gradientUnits="userSpaceOnUse" x1="3384.5" y1="2812.689" x2="3384.5" y2="2891.8828" gradientTransform="matrix(0 1 -0.1389 0 3353.7051 -2754)">
	<stop  offset="0" style="stop-color:#28004B"/>
	<stop  offset="1" style="stop-color:#040050"/>
</linearGradient>
<path class="st109" d="M2963,653v-45h-11v45H2963z"/>
<linearGradient id="SVGID_100_" gradientUnits="userSpaceOnUse" x1="2921.5" y1="401.0431" x2="2921.5" y2="480.2368" gradientTransform="matrix(1 0 0 0.1389 0 545.2951)">
	<stop  offset="0" style="stop-color:#28004B"/>
	<stop  offset="1" style="stop-color:#040050"/>
</linearGradient>
<path class="st110" d="M2954,601h-65c-6.1,0-11,4.9-11,11l0,0h87C2965,605.9,2960.1,601,2954,601L2954,601z"/>
<linearGradient id="SVGID_101_" gradientUnits="userSpaceOnUse" x1="2922" y1="391.5" x2="2877.3601" y2="391.5" gradientTransform="matrix(1 0 0 -1 0 1002)">
	<stop  offset="0" style="stop-color:#28004B"/>
	<stop  offset="1" style="stop-color:#040050"/>
</linearGradient>
<path class="st111" d="M2878,618.5c0,0-4-9.5,8-11.5s31,7,33,0s3-7,3-7v21L2878,618.5z"/>
<linearGradient id="SVGID_102_" gradientUnits="userSpaceOnUse" x1="3641.9998" y1="391.5" x2="3597.5876" y2="391.5" gradientTransform="matrix(-1 0 0 -1 6563.3599 1002)">
	<stop  offset="0" style="stop-color:#28004B"/>
	<stop  offset="1" style="stop-color:#040050"/>
</linearGradient>
<path class="st112" d="M2965,621c0,0,4.4-12-7.6-14s-31,7-33,0s-3-7-3-7l0.6,21H2965z"/>
<linearGradient id="SVGID_103_" gradientUnits="userSpaceOnUse" x1="2705.5562" y1="215.7837" x2="2659.9214" y2="242.1306" gradientTransform="matrix(1 0 0 -1 0 1002)">
	<stop  offset="0" style="stop-color:#28004B"/>
	<stop  offset="1" style="stop-color:#040050"/>
</linearGradient>
<path class="st113" d="M2700,795.8h-37v-36.3c0-10.2,8.3-18.5,18.5-18.5s18.5,8.3,18.5,18.5V795.8z"/>
<linearGradient id="SVGID_104_" gradientUnits="userSpaceOnUse" x1="2810.5562" y1="215.7837" x2="2764.9214" y2="242.1306" gradientTransform="matrix(1 0 0 -1 0 1002)">
	<stop  offset="0" style="stop-color:#28004B"/>
	<stop  offset="1" style="stop-color:#040050"/>
</linearGradient>
<path class="st114" d="M2805,795.8h-37v-36.3c0-10.2,8.3-18.5,18.5-18.5s18.5,8.3,18.5,18.5V795.8z"/>
<linearGradient id="SVGID_105_" gradientUnits="userSpaceOnUse" x1="2912.5562" y1="215.7837" x2="2866.9214" y2="242.1306" gradientTransform="matrix(1 0 0 -1 0 1002)">
	<stop  offset="0" style="stop-color:#28004B"/>
	<stop  offset="1" style="stop-color:#040050"/>
</linearGradient>
<path class="st115" d="M2907,795.8h-37v-36.3c0-10.2,8.3-18.5,18.5-18.5s18.5,8.3,18.5,18.5V795.8z"/>
<linearGradient id="SVGID_106_" gradientUnits="userSpaceOnUse" x1="1266.1001" y1="49.9949" x2="1136.8999" y2="124.5851" gradientTransform="matrix(1 0 0 -1 0 1002)">
	<stop  offset="0" style="stop-color:#28004B"/>
	<stop  offset="1" style="stop-color:#040050"/>
</linearGradient>
<path class="st116" d="M1284,919c0,0-64-6.7-94-4.3s-35-3.3-41-4.3s-30,0-30,0"/>
<linearGradient id="SVGID_107_" gradientUnits="userSpaceOnUse" x1="1257.4603" y1="32.3249" x2="1105.5397" y2="120.0452" gradientTransform="matrix(1 0 0 -1 0 1002)">
	<stop  offset="0" style="stop-color:#28004B"/>
	<stop  offset="1" style="stop-color:#040050"/>
</linearGradient>
<path class="st117" d="M1285,920c0,0-3-0.5-8,2.9c-5,3.4-115,5.8-135,14.1c0,0-46,0-64-5.3"/>
<linearGradient id="SVGID_108_" gradientUnits="userSpaceOnUse" x1="1266.1343" y1="72.8376" x2="1211.8657" y2="104.1624" gradientTransform="matrix(1 0 0 -1 0 1002)">
	<stop  offset="0" style="stop-color:#28004B"/>
	<stop  offset="1" style="stop-color:#040050"/>
</linearGradient>
<path class="st118" d="M1272,917c0,0-56-6-66-7"/>
<linearGradient id="SVGID_109_" gradientUnits="userSpaceOnUse" x1="1245.2433" y1="51.4381" x2="1149.7567" y2="106.5619" gradientTransform="matrix(1 0 0 -1 0 1002)">
	<stop  offset="0" style="stop-color:#28004B"/>
	<stop  offset="1" style="stop-color:#040050"/>
</linearGradient>
<path class="st119" d="M1260,923c-13-1-24-1-43,6s-34,2-43,0s-27-6-39-6"/>
</svg>
