<svg xmlns="http://www.w3.org/2000/svg" xmlns:xlink="http://www.w3.org/1999/xlink" viewBox="0 0 2000 674"><defs><linearGradient id="baf1b126-8198-49df-b69c-890eb53ae7ad" x1="837.91" y1="-256.17" x2="1162.09" y2="804.17" gradientUnits="userSpaceOnUse"><stop offset="0" stop-color="#ffb398"/><stop offset="0.19" stop-color="#fbb199"/><stop offset="0.35" stop-color="#f0aa9b"/><stop offset="0.52" stop-color="#de9fa0"/><stop offset="0.67" stop-color="#c48fa6"/><stop offset="0.83" stop-color="#a37aae"/><stop offset="0.98" stop-color="#7a61b8"/><stop offset="1" stop-color="#745db9"/></linearGradient><linearGradient id="b5af98dc-b1aa-4580-bfbc-549524dfe6c0" x1="845" y1="303" x2="1014" y2="303" gradientUnits="userSpaceOnUse"><stop offset="0" stop-color="#f67763"/><stop offset="1" stop-color="#b12c27"/></linearGradient><linearGradient id="acb41c39-18f0-46f5-b1f8-7d471bdaeccf" y1="609" x2="2000" y2="609" gradientUnits="userSpaceOnUse"><stop offset="0" stop-color="#ffb398"/><stop offset="0.31" stop-color="#fbb297"/><stop offset="0.6" stop-color="#f0ad94"/><stop offset="0.87" stop-color="#dea78f"/><stop offset="1" stop-color="#d2a28c"/></linearGradient><linearGradient id="f9d6097c-1bf2-428c-8bc1-30a741bb7425" x1="225" y1="510.5" x2="361" y2="510.5" gradientUnits="userSpaceOnUse"><stop offset="0" stop-color="#ffb398"/><stop offset="0.29" stop-color="#ffaf97"/><stop offset="0.55" stop-color="#ffa493"/><stop offset="0.8" stop-color="#ff928d"/><stop offset="1" stop-color="#ff7d86"/></linearGradient><linearGradient id="be2705a9-f292-4979-b9cf-13cdb2aa8b68" x1="468" y1="544" x2="495" y2="544" xlink:href="#f9d6097c-1bf2-428c-8bc1-30a741bb7425"/><linearGradient id="a684d324-6bf2-4150-a6ff-ebe4da1fd572" x1="1354" y1="527.5" x2="1433" y2="527.5" xlink:href="#f9d6097c-1bf2-428c-8bc1-30a741bb7425"/><linearGradient id="beb9c7cc-eac4-4792-85f3-8d1824328bd5" x1="1630" y1="584.5" x2="1791" y2="584.5" xlink:href="#f9d6097c-1bf2-428c-8bc1-30a741bb7425"/><linearGradient id="f394f62d-89fc-47a8-85ce-346064717c59" x1="1524" y1="530.5" x2="1578" y2="530.5" xlink:href="#f9d6097c-1bf2-428c-8bc1-30a741bb7425"/><linearGradient id="a81d4452-85e3-461b-8d5e-6158877c03d2" x1="1452" y1="517.5" x2="1484" y2="517.5" xlink:href="#f9d6097c-1bf2-428c-8bc1-30a741bb7425"/><linearGradient id="e07883f7-291e-4a25-a303-f9bfcf9133b5" x1="1299" y1="554.5" x2="1325" y2="554.5" xlink:href="#f9d6097c-1bf2-428c-8bc1-30a741bb7425"/><linearGradient id="a16eea96-17ff-408c-b150-74d224a5872c" x1="1228" y1="534" x2="1282" y2="534" xlink:href="#f9d6097c-1bf2-428c-8bc1-30a741bb7425"/><linearGradient id="ada93771-5903-4422-98c5-5322614f4d7b" x1="1156" y1="557.5" x2="1199" y2="557.5" xlink:href="#f9d6097c-1bf2-428c-8bc1-30a741bb7425"/><linearGradient id="add124fd-d6c8-4f3d-93fd-a53d7f30aeb6" x1="1111" y1="527" x2="1148" y2="527" xlink:href="#f9d6097c-1bf2-428c-8bc1-30a741bb7425"/><linearGradient id="ae2a0726-cad3-4c85-8c77-af1293c799a3" x1="649" y1="577.5" x2="707" y2="577.5" xlink:href="#f9d6097c-1bf2-428c-8bc1-30a741bb7425"/><linearGradient id="aebc15ae-a267-470b-9288-df92f4e5a286" x1="712" y1="561.5" x2="758" y2="561.5" xlink:href="#f9d6097c-1bf2-428c-8bc1-30a741bb7425"/><linearGradient id="ff365aa2-4925-4737-ad21-91f58b7ab2e8" x1="759" y1="559" x2="783" y2="559" xlink:href="#f9d6097c-1bf2-428c-8bc1-30a741bb7425"/><linearGradient id="aac014d2-ec4b-44d5-81b8-9e0041b81973" x1="783" y1="532" x2="813" y2="532" xlink:href="#f9d6097c-1bf2-428c-8bc1-30a741bb7425"/><linearGradient id="b1904e17-790b-4414-ad3b-60d889abd616" x1="813" y1="530.5" x2="828" y2="530.5" xlink:href="#f9d6097c-1bf2-428c-8bc1-30a741bb7425"/><linearGradient id="a310f4ff-b544-4105-966e-2b72652177f8" x1="828" y1="532.5" x2="838" y2="532.5" xlink:href="#f9d6097c-1bf2-428c-8bc1-30a741bb7425"/><linearGradient id="b9877349-8476-4592-80d0-219cfccd7604" x1="1086" y1="527.5" x2="1111" y2="527.5" xlink:href="#f9d6097c-1bf2-428c-8bc1-30a741bb7425"/><linearGradient id="b067cf33-751f-47b4-8b3c-47839d8dc9ac" x1="1061" y1="531.5" x2="1086" y2="531.5" xlink:href="#f9d6097c-1bf2-428c-8bc1-30a741bb7425"/><linearGradient id="aa238377-c708-45bf-a97b-42137f0f044a" x1="1048" y1="533.5" x2="1064" y2="533.5" xlink:href="#f9d6097c-1bf2-428c-8bc1-30a741bb7425"/><linearGradient id="fdabb937-d7e8-4e79-af4a-2d00a4db917e" x1="1032" y1="539" x2="1046" y2="539" xlink:href="#f9d6097c-1bf2-428c-8bc1-30a741bb7425"/><linearGradient id="e0ac5924-16f3-4af4-807f-7ded106cf949" x1="1022" y1="534" x2="1033" y2="534" xlink:href="#f9d6097c-1bf2-428c-8bc1-30a741bb7425"/><linearGradient id="f9e16654-c1a5-4fc5-847c-c71ff66f01b0" x1="528" y1="573.5" x2="608" y2="573.5" xlink:href="#f9d6097c-1bf2-428c-8bc1-30a741bb7425"/><linearGradient id="f1c9cff8-2c38-4f14-8985-3de110f61461" x1="380" y1="558.5" x2="423" y2="558.5" xlink:href="#f9d6097c-1bf2-428c-8bc1-30a741bb7425"/><linearGradient id="a7af3f81-abe7-4ba9-8a6f-1a19f93f98c0" x1="481" y1="566.5" x2="515" y2="566.5" xlink:href="#f9d6097c-1bf2-428c-8bc1-30a741bb7425"/><linearGradient id="b593493c-6219-45d0-a2e6-7d28915909c6" y1="398.5" y2="398.5" xlink:href="#b5af98dc-b1aa-4580-bfbc-549524dfe6c0"/><linearGradient id="a135b4f7-1bfb-49ea-b9db-7cc02dcfd744" x1="872" y1="149" x2="990" y2="149" gradientTransform="translate(1862 298) rotate(180)" xlink:href="#b5af98dc-b1aa-4580-bfbc-549524dfe6c0"/><linearGradient id="af9ea09e-19ad-40d0-a863-ce093bbae05f" x1="872" y1="328" x2="990" y2="328" xlink:href="#b5af98dc-b1aa-4580-bfbc-549524dfe6c0"/><linearGradient id="b38914b2-9d33-4d68-86bd-eb59a747f48a" x1="912.2" y1="359.57" x2="954.95" y2="285.53" xlink:href="#b5af98dc-b1aa-4580-bfbc-549524dfe6c0"/><linearGradient id="b30be2c0-c45f-43a4-a9a6-c8d0583be63e" x1="895" y1="340.54" x2="968" y2="340.54" gradientUnits="userSpaceOnUse"><stop offset="0" stop-color="#2b0000"/><stop offset="1" stop-color="#542c27"/></linearGradient><linearGradient id="b53046ac-35ac-4fc8-b3a6-aee31ec4272e" x1="920" y1="210.62" x2="941" y2="210.62" xlink:href="#b30be2c0-c45f-43a4-a9a6-c8d0583be63e"/><linearGradient id="b75054b0-2a39-4dc8-9a11-1effcae5cbf8" x1="871" y1="257" x2="991" y2="257" xlink:href="#b5af98dc-b1aa-4580-bfbc-549524dfe6c0"/><linearGradient id="ef8f7418-3149-4534-88b2-aea55a99a07a" x1="237" y1="123.5" x2="484" y2="123.5" gradientUnits="userSpaceOnUse"><stop offset="0" stop-color="#ffea6a"/><stop offset="1" stop-color="#fff"/></linearGradient><linearGradient id="f0e3615a-ad7a-49a6-93f1-4c9ff7736e12" x1="256" x2="465" xlink:href="#ef8f7418-3149-4534-88b2-aea55a99a07a"/><linearGradient id="aa8a4a70-3b01-4c7a-856a-0542adf88827" x1="284" x2="437" xlink:href="#ef8f7418-3149-4534-88b2-aea55a99a07a"/><linearGradient id="a592c14e-cd89-42e5-8edc-45d591dfbff2" x1="303" x2="418" xlink:href="#ef8f7418-3149-4534-88b2-aea55a99a07a"/><linearGradient id="f630e141-921f-4799-a973-acdb504812bd" x1="780" y1="469.5" x2="815" y2="469.5" xlink:href="#f9d6097c-1bf2-428c-8bc1-30a741bb7425"/><linearGradient id="e71e6843-4236-48ed-81f5-ca9c4bcb5343" x1="1109" y1="453.5" x2="1157" y2="453.5" xlink:href="#f9d6097c-1bf2-428c-8bc1-30a741bb7425"/><linearGradient id="b709dc99-3267-45c4-aaaa-2fe241dd573d" x1="220" y1="346.5" x2="346" y2="346.5" xlink:href="#f9d6097c-1bf2-428c-8bc1-30a741bb7425"/><linearGradient id="ae419504-ddc3-4409-b595-648154e4e345" x1="220" y1="339.5" x2="369" y2="339.5" xlink:href="#f9d6097c-1bf2-428c-8bc1-30a741bb7425"/><linearGradient id="b5ac7e00-a26e-42da-96e8-2307abd2188b" x1="1618" y1="487" x2="1791" y2="487" xlink:href="#f9d6097c-1bf2-428c-8bc1-30a741bb7425"/><linearGradient id="ff9a6fe1-b7e0-4cf6-8f45-fff34e6d4a03" x1="1352" y1="383.5" x2="1426" y2="383.5" xlink:href="#f9d6097c-1bf2-428c-8bc1-30a741bb7425"/><linearGradient id="e2309fdf-514d-406e-8a4a-ae45add8b9db" x1="916.48" y1="554.17" x2="929.96" y2="530.83" xlink:href="#b5af98dc-b1aa-4580-bfbc-549524dfe6c0"/><linearGradient id="b9d00340-bce8-43f9-a45c-8eea59304e59" x1="862.95" y1="182.21" x2="848.1" y2="190.79" gradientTransform="translate(64.95 356)" xlink:href="#b5af98dc-b1aa-4580-bfbc-549524dfe6c0"/><linearGradient id="a708de98-1eb9-41ca-8ab2-eafb841a9b57" x1="936.48" y1="554.17" x2="949.96" y2="530.83" xlink:href="#b5af98dc-b1aa-4580-bfbc-549524dfe6c0"/><linearGradient id="aa10495a-e8f8-4a62-b161-bead61d7c48c" x1="842.95" y1="182.21" x2="828.1" y2="190.79" gradientTransform="translate(104.95 356)" xlink:href="#b5af98dc-b1aa-4580-bfbc-549524dfe6c0"/><linearGradient id="add2dba1-67a3-467e-bfca-1e2c35e17ab3" x1="961.16" y1="381.05" x2="980.84" y2="346.95" xlink:href="#b5af98dc-b1aa-4580-bfbc-549524dfe6c0"/><linearGradient id="b7859ff0-fc0d-4e3c-98a4-7de1bd47b7b6" x1="983.47" y1="357.67" x2="961.53" y2="370.33" gradientTransform="translate(1)" xlink:href="#b5af98dc-b1aa-4580-bfbc-549524dfe6c0"/><linearGradient id="e0da7121-414e-4142-9d59-fca7e3746e0a" x1="934.16" y1="236.05" x2="953.84" y2="201.95" xlink:href="#b5af98dc-b1aa-4580-bfbc-549524dfe6c0"/><linearGradient id="e5e244af-28a7-4155-9b8d-3a64ab4fe4e1" x1="1010.47" y1="502.67" x2="988.53" y2="515.33" gradientTransform="translate(-53 -290)" xlink:href="#b5af98dc-b1aa-4580-bfbc-549524dfe6c0"/><linearGradient id="b1e6995f-04f8-4aa0-a83d-9f7b6dad04da" x1="905.16" y1="235.05" x2="924.84" y2="200.95" xlink:href="#b5af98dc-b1aa-4580-bfbc-549524dfe6c0"/><linearGradient id="ada8f4f3-b524-4b8e-abc3-cf96d63b72ea" x1="1039.47" y1="503.67" x2="1017.53" y2="516.33" gradientTransform="translate(-111 -292)" xlink:href="#b5af98dc-b1aa-4580-bfbc-549524dfe6c0"/></defs><title>Asset 1</title><g id="ba65b208-ef48-4051-b902-fe9a1db8ff1e" data-name="Layer 2"><g id="a6e458fb-b91d-4267-a1f4-6ae8b64eadb0" data-name="Layer 1"><rect width="2000" height="548" fill="url(#baf1b126-8198-49df-b69c-890eb53ae7ad)"/><path d="M71.76,155c46.54-5,161.71,25,172.18,35s-45.37,34,30.25,38-10.47-62,65.14-37,57,22,96.56,37,83.76,54,61.66,9-23.27-55,0-47,48.86,15,114,34S747.67,255,757,246s-32.57-59,53.51-46,165.2,33,214.06,47,5.82-46,145.42-41,144.26,7,244.31,18,225.69,40,231.5,42-43-62,80.28-56S2000,170,2000,170V297c0,44-69,56-150.63,122-184.54,149.22-402.52-4-567.72-7s-407.17-29-452.54-34-148.91,3-268.74-5-210.57-16-221-16S444,375,394,384s-83.76,8-150.07,5S0,376,0,376,3.18,195,9,137,71.76,155,71.76,155Z" fill="#fee" opacity="0.05"/><rect x="845" y="48" width="169" height="510" fill="url(#b5af98dc-b1aa-4580-bfbc-549524dfe6c0)"/><rect x="918" y="501" width="29" height="56" fill="#911717"/><rect y="548" width="2000" height="122" transform="translate(2000 1218) rotate(180)" fill="url(#acb41c39-18f0-46f5-b1f8-7d471bdaeccf)"/><rect x="225" y="349" width="136" height="323" fill="url(#f9d6097c-1bf2-428c-8bc1-30a741bb7425)"/><rect x="468" y="512" width="27" height="64" fill="url(#be2705a9-f292-4979-b9cf-13cdb2aa8b68)"/><path d="M1354,387h68.82A10.18,10.18,0,0,1,1433,397.18V668a0,0,0,0,1,0,0h-79a0,0,0,0,1,0,0V387A0,0,0,0,1,1354,387Z" fill="url(#a684d324-6bf2-4150-a6ff-ebe4da1fd572)"/><path d="M1637,495h154a0,0,0,0,1,0,0V674a0,0,0,0,1,0,0H1630a0,0,0,0,1,0,0V502A7,7,0,0,1,1637,495Z" fill="url(#beb9c7cc-eac4-4792-85f3-8d1824328bd5)"/><rect x="1524" y="479" width="54" height="103" fill="url(#f394f62d-89fc-47a8-85ce-346064717c59)"/><rect x="1452" y="466" width="32" height="103" fill="url(#a81d4452-85e3-461b-8d5e-6158877c03d2)"/><rect x="1299" y="514" width="26" height="81" fill="url(#e07883f7-291e-4a25-a303-f9bfcf9133b5)"/><rect x="1228" y="430" width="54" height="208" fill="url(#a16eea96-17ff-408c-b150-74d224a5872c)"/><rect x="1156" y="499" width="43" height="117" fill="url(#ada93771-5903-4422-98c5-5322614f4d7b)"/><rect x="1111" y="456" width="37" height="142" fill="url(#add124fd-d6c8-4f3d-93fd-a53d7f30aeb6)"/><rect x="649" y="514" width="58" height="127" fill="url(#ae2a0726-cad3-4c85-8c77-af1293c799a3)"/><rect x="712" y="501" width="46" height="121" fill="url(#aebc15ae-a267-470b-9288-df92f4e5a286)"/><rect x="759" y="513" width="24" height="92" fill="url(#ff365aa2-4925-4737-ad21-91f58b7ab2e8)"/><rect x="783" y="473" width="30" height="118" fill="url(#aac014d2-ec4b-44d5-81b8-9e0041b81973)"/><rect x="813" y="477" width="15" height="107" fill="url(#b1904e17-790b-4414-ad3b-60d889abd616)"/><rect x="828" y="488" width="10" height="89" fill="url(#a310f4ff-b544-4105-966e-2b72652177f8)"/><rect x="1086" y="468" width="25" height="119" fill="url(#b9877349-8476-4592-80d0-219cfccd7604)"/><rect x="1061" y="479" width="25" height="105" fill="url(#b067cf33-751f-47b4-8b3c-47839d8dc9ac)"/><rect x="1048" y="485" width="16" height="97" fill="url(#aa238377-c708-45bf-a97b-42137f0f044a)"/><rect x="1032" y="499" width="14" height="80" fill="url(#fdabb937-d7e8-4e79-af4a-2d00a4db917e)"/><rect x="1022" y="494" width="11" height="80" fill="url(#e0ac5924-16f3-4af4-807f-7ded106cf949)"/><rect x="528" y="475" width="80" height="197" fill="url(#f9e16654-c1a5-4fc5-847c-c71ff66f01b0)"/><polygon points="423 615 380 613 380 502 423 504 423 615" fill="url(#f1c9cff8-2c38-4f14-8985-3de110f61461)"/><rect x="481" y="532" width="34" height="69" fill="url(#a7af3f81-abe7-4ba9-8a6f-1a19f93f98c0)"/><polygon points="997.58 221.99 1000.2 226.04 997.73 229 994.8 224.96 997.58 221.99" fill="#911717"/><polygon points="1000.2 202.04 997.73 205 994.8 200.96 997.58 197.99 1000.2 202.04" fill="#911717"/><polygon points="1001.2 173.04 998.73 176 995.8 171.96 998.58 168.99 1001.2 173.04" fill="#911717"/><polygon points="1001.2 149.04 998.73 152 995.8 147.96 998.58 144.99 1001.2 149.04" fill="#911717"/><polygon points="1001.2 125.04 998.73 128 995.8 123.96 998.58 120.99 1001.2 125.04" fill="#911717"/><polygon points="1001.2 101.04 998.73 104 995.8 99.96 998.58 96.99 1001.2 101.04" fill="#911717"/><polygon points="1001.2 77.04 998.73 80 995.8 75.96 998.58 72.99 1001.2 77.04" fill="#911717"/><polygon points="990 58 990 240 872 240 872 86.6 871 86 871 83 872 83 872 58 990 58" fill="#911717"/><polygon points="983.45 240 1014 240 1014 557 845 557 845 240 870.78 240 870.78 274 983.45 274 983.45 240" fill="url(#b593493c-6219-45d0-a2e6-7d28915909c6)"/><rect x="872" y="58" width="118" height="182" fill="#911717"/><rect x="872" y="274" width="118" height="111" fill="#911717"/><rect x="872" y="58" width="118" height="182" fill="url(#a135b4f7-1bfb-49ea-b9db-7cc02dcfd744)"/><rect x="872" y="271" width="118" height="114" transform="translate(1862 656) rotate(180)" fill="url(#af9ea09e-19ad-40d0-a863-ce093bbae05f)"/><path d="M891.87,346.94l-11.45-5.72a2.39,2.39,0,0,1,.06-4.3l9.75-4.56a.63.63,0,0,0,.22-1l-8.8-10.27a2.39,2.39,0,0,1,1.35-3.89l10.31-2.07a.63.63,0,0,0,.49-.81l-3.7-12.58a2.39,2.39,0,0,1,2.73-3l11.45,2.14a.64.64,0,0,0,.76-.59l.73-13.92a2.38,2.38,0,0,1,3.77-1.82l9.83,7a.65.65,0,0,0,1-.25L926,279.2a2.39,2.39,0,0,1,4.24-.16l6.39,11.36a.64.64,0,0,0,.92.22l10.92-7.28a2.39,2.39,0,0,1,3.71,1.87l.75,15a.64.64,0,0,0,.84.58l10.14-3.38a2.39,2.39,0,0,1,3.08,2.81l-2.9,12.33a.65.65,0,0,0,.35.73l12.84,6a2.39,2.39,0,0,1,.37,4.11l-9.88,7.06a.64.64,0,0,0,0,1.07l10.54,6.33a2.38,2.38,0,0,1-.1,4.15l-11.13,5.94a.71.71,0,0,1-.31.08l-74.69-1A.68.68,0,0,1,891.87,346.94Z" fill="url(#b38914b2-9d33-4d68-86bd-eb59a747f48a)"/><path d="M895,382V345.27c0-12.2,6.51-29.75,14.82-38.68,10-10.76,24.07-16.92,41.06,0A58.83,58.83,0,0,1,968,348.37V385H895" opacity="0.85" fill="url(#b30be2c0-c45f-43a4-a9a6-c8d0583be63e)"/><path d="M920,238V207.77a38.26,38.26,0,0,1,1-8.82c2.19-9.18,7.89-27.69,15.14-10.94,3.17,7.31,4.88,17.33,4.88,27.67V240H920" opacity="0.85" fill="url(#b53046ac-35ac-4fc8-b3a6-aee31ec4272e)"/><polygon points="898 110 903 113 907 110 907 107 905 107 905 102 901 102 901 107 898 107 898 110" fill="#911717"/><polygon points="907 118 912 121 916 118 916 115 914 115 914 110 910 110 910 115 907 115 907 118" fill="#911717"/><polygon points="916 126 921 129 925 126 925 123 923 123 923 118 919 118 919 123 916 123 916 126" fill="#911717"/><polygon points="925 134 930 137 934 134 934 131 932 131 932 126 928 126 928 131 925 131 925 134" fill="#911717"/><polygon points="934 142 939 145 943 142 943 139 941 139 941 134 937 134 937 139 934 139 934 142" fill="#911717"/><polygon points="943 150 948 153 952 150 952 147 950 147 950 142 946 142 946 147 943 147 943 150" fill="#911717"/><polygon points="952 158 957 161 961 158 961 155 959 155 959 150 955 150 955 155 952 155 952 158" fill="#911717"/><polygon points="961 166 966 169 970 166 970 163 968 163 968 158 964 158 964 163 961 163 961 166" fill="#911717"/><polygon points="970 174 975 177 979 174 979 171 977 171 977 166 973 166 973 171 970 171 970 174" fill="#911717"/><polygon points="990 177 990 180.75 987 183 982 180 982 177 985 177 985 172 989 172 989 177 990 177" fill="#911717"/><polygon points="881 67 881 70 877 73 872 70 872 67 875 67 875 62 879 62 879 67 881 67" fill="#911717"/><polygon points="890 60 890 63 886 66 881 63 881 60 884 60 884 58 888 58 888 60 890 60" fill="#911717"/><polygon points="890 69 895 72 899 69 899 66 897 66 897 61 893 61 893 66 890 66 890 69" fill="#911717"/><polygon points="899 75 904 78 908 75 908 72 906 72 906 67 902 67 902 72 899 72 899 75" fill="#911717"/><polygon points="908 81 913 84 917 81 917 78 915 78 915 73 911 73 911 78 908 78 908 81" fill="#911717"/><polygon points="917 87 922 90 926 87 926 84 924 84 924 79 920 79 920 84 917 84 917 87" fill="#911717"/><polygon points="926 93 931 96 935 93 935 90 933 90 933 85 929 85 929 90 926 90 926 93" fill="#911717"/><polygon points="935 99 940 102 944 99 944 96 942 96 942 91 938 91 938 96 935 96 935 99" fill="#911717"/><polygon points="944 105 949 108 953 105 953 102 951 102 951 97 947 97 947 102 944 102 944 105" fill="#911717"/><polygon points="953 111 958 114 962 111 962 108 960 108 960 103 956 103 956 108 953 108 953 111" fill="#911717"/><polygon points="962 117 967 120 971 117 971 114 969 114 969 109 965 109 965 114 962 114 962 117" fill="#911717"/><polygon points="971 123 976 126 980 123 980 120 978 120 978 115 974 115 974 120 971 120 971 123" fill="#911717"/><polygon points="980 129 985 132 989 129 989 126 987 126 987 121 983 121 983 126 980 126 980 129" fill="#911717"/><polygon points="911 59 911 62 907 65 902 62 902 59 905 59 905 58 909 58 909 59 911 59" fill="#911717"/><polygon points="914 69 919 72 923 69 923 66 921 66 921 61 917 61 917 66 914 66 914 69" fill="#911717"/><polygon points="926 76 931 79 935 76 935 73 933 73 933 68 929 68 929 73 926 73 926 76" fill="#911717"/><polygon points="938 83 943 86 947 83 947 80 945 80 945 75 941 75 941 80 938 80 938 83" fill="#911717"/><polygon points="950 90 955 93 959 90 959 87 957 87 957 82 953 82 953 87 950 87 950 90" fill="#911717"/><polygon points="962 97 967 100 971 97 971 94 969 94 969 89 965 89 965 94 962 94 962 97" fill="#911717"/><polygon points="974 104 979 107 983 104 983 101 981 101 981 96 977 96 977 101 974 101 974 104" fill="#911717"/><polygon points="990 103 990 113.4 986 111 986 108 989 108 989 103 990 103" fill="#911717"/><polygon points="940 58 940 61 936 64 931 61 931 58 940 58" fill="#911717"/><polygon points="943 68 948 71 952 68 952 65 950 65 950 60 946 60 946 65 943 65 943 68" fill="#911717"/><polygon points="955 75 960 78 964 75 964 72 962 72 962 67 958 67 958 72 955 72 955 75" fill="#911717"/><polygon points="967 82 972 85 976 82 976 79 974 79 974 74 970 74 970 79 967 79 967 82" fill="#911717"/><polygon points="979 89 984 92 988 89 988 86 986 86 986 81 982 81 982 86 979 86 979 89" fill="#911717"/><polygon points="880 78 885 81 889 78 889 75 887 75 887 70 883 70 883 75 880 75 880 78" fill="#911717"/><polygon points="889 85 894 88 898 85 898 82 896 82 896 77 892 77 892 82 889 82 889 85" fill="#911717"/><polygon points="898 92 903 95 907 92 907 89 905 89 905 84 901 84 901 89 898 89 898 92" fill="#911717"/><polygon points="907 99 912 102 916 99 916 96 914 96 914 91 910 91 910 96 907 96 907 99" fill="#911717"/><polygon points="916 106 921 109 925 106 925 103 923 103 923 98 919 98 919 103 916 103 916 106" fill="#911717"/><polygon points="925 113 930 116 934 113 934 110 932 110 932 105 928 105 928 110 925 110 925 113" fill="#911717"/><polygon points="934 120 939 123 943 120 943 117 941 117 941 112 937 112 937 117 934 117 934 120" fill="#911717"/><polygon points="943 127 948 130 952 127 952 124 950 124 950 119 946 119 946 124 943 124 943 127" fill="#911717"/><polygon points="952 134 957 137 961 134 961 131 959 131 959 126 955 126 955 131 952 131 952 134" fill="#911717"/><polygon points="961 141 966 144 970 141 970 138 968 138 968 133 964 133 964 138 961 138 961 141" fill="#911717"/><polygon points="970 148 975 151 979 148 979 145 977 145 977 140 973 140 973 145 970 145 970 148" fill="#911717"/><polygon points="979 155 984 158 988 155 988 152 986 152 986 147 982 147 982 152 979 152 979 155" fill="#911717"/><polygon points="889 102 894 105 898 102 898 99 896 99 896 94 892 94 892 99 889 99 889 102" fill="#911717"/><polygon points="880 94 885 97 889 94 889 91 887 91 887 86 883 86 883 91 880 91 880 94" fill="#911717"/><polygon points="878 103 878 106 874 109 872 107.8 872 98 876 98 876 103 878 103" fill="#911717"/><polygon points="879 115 884 118 888 115 888 112 886 112 886 107 882 107 882 112 879 112 879 115" fill="#911717"/><polygon points="889 124 894 127 898 124 898 121 896 121 896 116 892 116 892 121 889 121 889 124" fill="#911717"/><polygon points="899 133 904 136 908 133 908 130 906 130 906 125 902 125 902 130 899 130 899 133" fill="#911717"/><polygon points="909 142 914 145 918 142 918 139 916 139 916 134 912 134 912 139 909 139 909 142" fill="#911717"/><polygon points="919 151 924 154 928 151 928 148 926 148 926 143 922 143 922 148 919 148 919 151" fill="#911717"/><polygon points="929 160 934 163 938 160 938 157 936 157 936 152 932 152 932 157 929 157 929 160" fill="#911717"/><polygon points="939 169 944 172 948 169 948 166 946 166 946 161 942 161 942 166 939 166 939 169" fill="#911717"/><polygon points="949 178 954 181 958 178 958 175 956 175 956 170 952 170 952 175 949 175 949 178" fill="#911717"/><polygon points="959 187 964 190 968 187 968 184 966 184 966 179 962 179 962 184 959 184 959 187" fill="#911717"/><polygon points="969 196 974 199 978 196 978 193 976 193 976 188 972 188 972 193 969 193 969 196" fill="#911717"/><polygon points="979 205 984 208 988 205 988 202 986 202 986 197 982 197 982 202 979 202 979 205" fill="#911717"/><polygon points="878 128 878 131 874 134 872 132.8 872 123 876 123 876 128 878 128" fill="#911717"/><polygon points="878 138 883 141 887 138 887 135 885 135 885 130 881 130 881 135 878 135 878 138" fill="#911717"/><polygon points="887 147 892 150 896 147 896 144 894 144 894 139 890 139 890 144 887 144 887 147" fill="#911717"/><polygon points="898 155 903 158 907 155 907 152 905 152 905 147 901 147 901 152 898 152 898 155" fill="#911717"/><polygon points="907 164 912 167 916 164 916 161 914 161 914 156 910 156 910 161 907 161 907 164" fill="#911717"/><polygon points="878 153 878 156 874 159 872 157.8 872 148 876 148 876 153 878 153" fill="#911717"/><polygon points="880 166 885 169 889 166 889 163 887 163 887 158 883 158 883 163 880 163 880 166" fill="#911717"/><polygon points="878 180 878 183 874 186 872 184.8 872 175 876 175 876 180 878 180" fill="#911717"/><polygon points="880 193 885 196 889 193 889 190 887 190 887 185 883 185 883 190 880 190 880 193" fill="#911717"/><polygon points="891 203 896 206 900 203 900 200 898 200 898 195 894 195 894 200 891 200 891 203" fill="#911717"/><polygon points="902 213 907 216 911 213 911 210 909 210 909 205 905 205 905 210 902 210 902 213" fill="#911717"/><polygon points="878 205 878 208 874 211 872 209.8 872 200 876 200 876 205 878 205" fill="#911717"/><polygon points="880 219 885 222 889 219 889 216 887 216 887 211 883 211 883 216 880 216 880 219" fill="#911717"/><polygon points="891 230 896 233 900 230 900 227 898 227 898 222 894 222 894 227 891 227 891 230" fill="#911717"/><polygon points="911 238 911 240 902 240 902 238 905 238 905 233 909 233 909 238 911 238" fill="#911717"/><polygon points="878 227 878 230 874 233 872 231.8 872 222 876 222 876 227 878 227" fill="#911717"/><polygon points="888 237 888 240 879 240 879 237 882 237 882 232 886 232 886 237 888 237" fill="#911717"/><polygon points="891 176 896 179 900 176 900 173 898 173 898 168 894 168 894 173 891 173 891 176" fill="#911717"/><polygon points="902 186 907 189 911 186 911 183 909 183 909 178 905 178 905 183 902 183 902 186" fill="#911717"/><polygon points="911 195 916 198 920 195 920 192 918 192 918 187 914 187 914 192 911 192 911 195" fill="#911717"/><polygon points="946 226 951 229 955 226 955 223 953 223 953 218 949 218 949 223 946 223 946 226" fill="#911717"/><polygon points="957 236 962 239 966 236 966 233 964 233 964 228 960 228 960 233 957 233 957 236" fill="#911717"/><polygon points="916 173 921 176 925 173 925 170 923 170 923 165 919 165 919 170 916 170 916 173" fill="#911717"/><polygon points="937 189 942 192 946 189 946 186 944 186 944 181 940 181 940 186 937 186 937 189" fill="#911717"/><polygon points="943 200 948 203 952 200 952 197 950 197 950 192 946 192 946 197 943 197 943 200" fill="#911717"/><polygon points="952 209 957 212 961 209 961 206 959 206 959 201 955 201 955 206 952 206 952 209" fill="#911717"/><polygon points="961 218 966 221 970 218 970 215 968 215 968 210 964 210 964 215 961 215 961 218" fill="#911717"/><polygon points="970 227 975 230 979 227 979 224 977 224 977 219 973 219 973 224 970 224 970 227" fill="#911717"/><polygon points="979 236 984 239 988 236 988 233 986 233 986 228 982 228 982 233 979 233 979 236" fill="#911717"/><polygon points="880 83 880 86 876 89 872 86.6 871 86 871 83 874 83 874 78 878 78 878 83 880 83" fill="#911717"/><path d="M925,557V529s-8-7,0-15,13,0,15,3c0,0,3,7-1,12v28Z" fill="#911717"/><rect x="930" y="385" width="4" height="12" fill="#911717"/><polygon points="868.8 398.96 871.58 395.99 874.2 400.04 871.73 403 868.8 398.96" fill="#911717"/><polygon points="898.8 399.96 901.58 396.99 904.2 401.04 901.73 404 898.8 399.96" fill="#911717"/><polygon points="928.8 402.96 931.58 399.99 934.2 404.04 931.73 407 928.8 402.96" fill="#911717"/><polygon points="958.8 401.96 961.58 398.99 964.2 403.04 961.73 406 958.8 401.96" fill="#911717"/><polygon points="988.8 402.96 991.58 399.99 994.2 404.04 991.73 407 988.8 402.96" fill="#911717"/><polygon points="898.8 423.96 901.58 420.99 904.2 425.04 901.73 428 898.8 423.96" fill="#911717"/><polygon points="928.8 424.96 931.58 421.99 934.2 426.04 931.73 429 928.8 424.96" fill="#911717"/><polygon points="958.8 425.96 961.58 422.99 964.2 427.04 961.73 430 958.8 425.96" fill="#911717"/><polygon points="988.8 426.96 991.58 423.99 994.2 428.04 991.73 431 988.8 426.96" fill="#911717"/><polygon points="898.8 447.96 901.58 444.99 904.2 449.04 901.73 452 898.8 447.96" fill="#911717"/><polygon points="928.8 448.96 931.58 445.99 934.2 450.04 931.73 453 928.8 448.96" fill="#911717"/><polygon points="958.8 449.96 961.58 446.99 964.2 451.04 961.73 454 958.8 449.96" fill="#911717"/><polygon points="988.8 450.96 991.58 447.99 994.2 452.04 991.73 455 988.8 450.96" fill="#911717"/><polygon points="898.8 471.96 901.58 468.99 904.2 473.04 901.73 476 898.8 471.96" fill="#911717"/><polygon points="928.8 472.96 931.58 469.99 934.2 474.04 931.73 477 928.8 472.96" fill="#911717"/><polygon points="958.8 473.96 961.58 470.99 964.2 475.04 961.73 478 958.8 473.96" fill="#911717"/><polygon points="988.8 474.96 991.58 471.99 994.2 476.04 991.73 479 988.8 474.96" fill="#911717"/><polygon points="898.8 495.96 901.58 492.99 904.2 497.04 901.73 500 898.8 495.96" fill="#911717"/><polygon points="928.8 496.96 931.58 493.99 934.2 498.04 931.73 501 928.8 496.96" fill="#911717"/><polygon points="958.8 497.96 961.58 494.99 964.2 499.04 961.73 502 958.8 497.96" fill="#911717"/><polygon points="988.8 498.96 991.58 495.99 994.2 500.04 991.73 503 988.8 498.96" fill="#911717"/><polygon points="898.8 519.96 901.58 516.99 904.2 521.04 901.73 524 898.8 519.96" fill="#911717"/><polygon points="928.8 520.96 931.58 517.99 934.2 522.04 931.73 525 928.8 520.96" fill="#911717"/><polygon points="958.8 521.96 961.58 518.99 964.2 523.04 961.73 526 958.8 521.96" fill="#911717"/><polygon points="988.8 522.96 991.58 519.99 994.2 524.04 991.73 527 988.8 522.96" fill="#911717"/><polygon points="898.8 543.96 901.58 540.99 904.2 545.04 901.73 548 898.8 543.96" fill="#911717"/><polygon points="928.8 544.96 931.58 541.99 934.2 546.04 931.73 549 928.8 544.96" fill="#911717"/><polygon points="958.8 545.96 961.58 542.99 964.2 547.04 961.73 550 958.8 545.96" fill="#911717"/><polygon points="988.8 546.96 991.58 543.99 994.2 548.04 991.73 551 988.8 546.96" fill="#911717"/><polygon points="868.8 424.96 871.58 421.99 874.2 426.04 871.73 429 868.8 424.96" fill="#911717"/><polygon points="868.8 450.96 871.58 447.99 874.2 452.04 871.73 455 868.8 450.96" fill="#911717"/><polygon points="868.8 476.96 871.58 473.99 874.2 478.04 871.73 481 868.8 476.96" fill="#911717"/><polygon points="868.8 502.96 871.58 499.99 874.2 504.04 871.73 507 868.8 502.96" fill="#911717"/><polygon points="868.8 528.96 871.58 525.99 874.2 530.04 871.73 533 868.8 528.96" fill="#911717"/><polygon points="1001.2 77.04 998.73 80 995.8 75.96 998.58 72.99 1001.2 77.04" fill="#911717"/><polygon points="1001.2 101.04 998.73 104 995.8 99.96 998.58 96.99 1001.2 101.04" fill="#911717"/><polygon points="1001.2 125.04 998.73 128 995.8 123.96 998.58 120.99 1001.2 125.04" fill="#911717"/><polygon points="1001.2 149.04 998.73 152 995.8 147.96 998.58 144.99 1001.2 149.04" fill="#911717"/><polygon points="1001.2 173.04 998.73 176 995.8 171.96 998.58 168.99 1001.2 173.04" fill="#911717"/><polygon points="1000.2 202.04 997.73 205 994.8 200.96 997.58 197.99 1000.2 202.04" fill="#911717"/><polygon points="1000.2 226.04 997.73 229 994.8 224.96 997.58 221.99 1000.2 226.04" fill="#911717"/><polygon points="994.8 248.96 997.58 245.99 1000.2 250.04 997.73 253 994.8 248.96" fill="#911717"/><polygon points="994.8 272.96 997.58 269.99 1000.2 274.04 997.73 277 994.8 272.96" fill="#911717"/><polygon points="994.8 296.96 997.58 293.99 1000.2 298.04 997.73 301 994.8 296.96" fill="#911717"/><polygon points="993.8 325.96 996.58 322.99 999.2 327.04 996.73 330 993.8 325.96" fill="#911717"/><polygon points="993.8 349.96 996.58 346.99 999.2 351.04 996.73 354 993.8 349.96" fill="#911717"/><polygon points="993.8 373.96 996.58 370.99 999.2 375.04 996.73 378 993.8 373.96" fill="#911717"/><polygon points="856.8 70.96 859.58 67.99 862.2 72.04 859.73 75 856.8 70.96" fill="#911717"/><polygon points="856.8 94.96 859.58 91.99 862.2 96.04 859.73 99 856.8 94.96" fill="#911717"/><polygon points="856.8 118.96 859.58 115.99 862.2 120.04 859.73 123 856.8 118.96" fill="#911717"/><polygon points="856.8 142.96 859.58 139.99 862.2 144.04 859.73 147 856.8 142.96" fill="#911717"/><polygon points="856.8 166.96 859.58 163.99 862.2 168.04 859.73 171 856.8 166.96" fill="#911717"/><polygon points="855.8 195.96 858.58 192.99 861.2 197.04 858.73 200 855.8 195.96" fill="#911717"/><polygon points="855.8 219.96 858.58 216.99 861.2 221.04 858.73 224 855.8 219.96" fill="#911717"/><polygon points="855.8 243.96 858.58 240.99 861.2 245.04 858.73 248 855.8 243.96" fill="#911717"/><polygon points="855.8 267.96 858.58 264.99 861.2 269.04 858.73 272 855.8 267.96" fill="#911717"/><polygon points="855.8 291.96 858.58 288.99 861.2 293.04 858.73 296 855.8 291.96" fill="#911717"/><polygon points="854.8 320.96 857.58 317.99 860.2 322.04 857.73 325 854.8 320.96" fill="#911717"/><polygon points="854.8 344.96 857.58 341.99 860.2 346.04 857.73 349 854.8 344.96" fill="#911717"/><polygon points="854.8 368.96 857.58 365.99 860.2 370.04 857.73 373 854.8 368.96" fill="#911717"/><polygon points="871 83 872 83 872 86.6 871 86 871 83" fill="#911717"/><polygon points="994.8 224.96 997.58 221.99 1000.2 226.04 997.73 229 994.8 224.96" fill="#911717"/><polygon points="994.8 200.96 997.58 197.99 1000.2 202.04 997.73 205 994.8 200.96" fill="#911717"/><polygon points="995.8 171.96 998.58 168.99 1001.2 173.04 998.73 176 995.8 171.96" fill="#911717"/><polygon points="995.8 147.96 998.58 144.99 1001.2 149.04 998.73 152 995.8 147.96" fill="#911717"/><polygon points="995.8 123.96 998.58 120.99 1001.2 125.04 998.73 128 995.8 123.96" fill="#911717"/><polygon points="995.8 99.96 998.58 96.99 1001.2 101.04 998.73 104 995.8 99.96" fill="#911717"/><polygon points="998.73 80 995.8 75.96 998.58 72.99 1001.2 77.04 998.73 80" fill="#911717"/><rect x="871" y="240" width="120" height="34" fill="url(#b75054b0-2a39-4dc8-9a11-1effcae5cbf8)"/><path d="M798,668c24-19,98.5-111,98.5-111" fill="#f7d5d5" opacity="0.45"/><path d="M827,668c24-19,98.5-111,98.5-111" fill="#f7d5d5" opacity="0.13"/><path d="M1063.5,668c-24-19-98.5-111-98.5-111" fill="#f7d5d5" opacity="0.45"/><path d="M1038.5,668c-24-19-98.5-111-98.5-111" fill="#f7d5d5" opacity="0.13"/><circle cx="360.5" cy="123.5" r="123.5" opacity="0.06" fill="url(#ef8f7418-3149-4534-88b2-aea55a99a07a)"/><circle cx="360.5" cy="123.5" r="104.5" opacity="0.06" fill="url(#f0e3615a-ad7a-49a6-93f1-4c9ff7736e12)"/><circle cx="360.5" cy="123.5" r="76.5" opacity="0.06" fill="url(#aa8a4a70-3b01-4c7a-856a-0542adf88827)"/><circle cx="360.5" cy="123.5" r="57.5" opacity="0.06" fill="url(#a592c14e-cd89-42e5-8edc-45d591dfbff2)"/><circle cx="360.5" cy="123.5" r="41.5" fill="#fff" opacity="0.25"/><path d="M0,107S372,328,484,265,609,127,695,159s183,80,251,33,191-126,226-66,195,120-24,142-349-12-479,37-245,29-308,79-62,61-124,72S0,400.5,0,400.5Z" fill="#fee" opacity="0.05"/><rect x="780" y="466" width="35" height="7" fill="url(#f630e141-921f-4799-a973-acdb504812bd)"/><rect x="1109" y="450" width="48" height="7" fill="url(#e71e6843-4236-48ed-81f5-ca9c4bcb5343)"/><path d="M220,343H346a0,0,0,0,1,0,0v3.41a3.59,3.59,0,0,1-3.59,3.59H220a0,0,0,0,1,0,0v-7A0,0,0,0,1,220,343Z" fill="url(#b709dc99-3267-45c4-aaaa-2fe241dd573d)"/><path d="M220.57,336h142a6.43,6.43,0,0,1,6.43,6.43v0a.57.57,0,0,1-.57.57H220.57a.57.57,0,0,1-.57-.57v-5.87a.57.57,0,0,1,.57-.57Z" fill="url(#ae419504-ddc3-4409-b595-648154e4e345)"/><path d="M1622.72,479h163.57a4.72,4.72,0,0,1,4.72,4.72v6.57a4.72,4.72,0,0,1-4.72,4.72h-157A11.28,11.28,0,0,1,1618,483.72v0a4.72,4.72,0,0,1,4.72-4.72Z" fill="url(#b5ac7e00-a26e-42da-96e8-2307abd2188b)"/><rect x="1352" y="380" width="74" height="7" fill="url(#ff9a6fe1-b7e0-4cf6-8f45-fff34e6d4a03)"/><rect x="921.39" y="528" width="3.66" height="29" fill="url(#e2309fdf-514d-406e-8a4a-ae45add8b9db)"/><rect x="918.95" y="528" width="3.05" height="29" transform="translate(1840.95 1085) rotate(180)" fill="url(#b9d00340-bce8-43f9-a45c-8eea59304e59)"/><rect x="941.39" y="528" width="3.66" height="29" fill="url(#a708de98-1eb9-41ca-8ab2-eafb841a9b57)"/><rect x="938.95" y="528" width="3.05" height="29" transform="translate(1880.95 1085) rotate(180)" fill="url(#aa10495a-e8f8-4a62-b161-bead61d7c48c)"/><rect x="968" y="343" width="6" height="42" fill="url(#add2dba1-67a3-467e-bfca-1e2c35e17ab3)"/><rect x="971" y="343" width="5" height="42" transform="translate(1947 728) rotate(180)" fill="url(#b7859ff0-fc0d-4e3c-98a4-7de1bd47b7b6)"/><rect x="941" y="198" width="6" height="42" fill="url(#e0da7121-414e-4142-9d59-fca7e3746e0a)"/><rect x="944" y="198" width="5" height="42" transform="translate(1893 438) rotate(180)" fill="url(#e5e244af-28a7-4155-9b8d-3a64ab4fe4e1)"/><rect x="912" y="197" width="6" height="42" fill="url(#b1e6995f-04f8-4aa0-a83d-9f7b6dad04da)"/><rect x="915" y="197" width="5" height="42" transform="translate(1835 436) rotate(180)" fill="url(#ada8f4f3-b524-4b8e-abc3-cf96d63b72ea)"/></g></g></svg>